<?xml version="1.0" encoding="UTF-8" standalone="no"?><svg xmlns="http://www.w3.org/2000/svg" xmlns:xlink="http://www.w3.org/1999/xlink" contentScriptType="application/ecmascript" contentStyleType="text/css" height="635px" preserveAspectRatio="none" style="width:832px;height:635px;" version="1.1" viewBox="0 0 832 635" width="832px" zoomAndPan="magnify"><defs/><g><text fill="#000000" font-family="sans-serif" font-size="18" lengthAdjust="spacingAndGlyphs" textLength="195" x="319.25" y="26.708">Academic Paper route</text><rect fill="#FFFFFF" height="119.3359" style="stroke: #000000; stroke-width: 2.0;" width="697" x="123.5" y="353.3125"/><rect fill="#FFFFFF" height="73.0703" style="stroke: none; stroke-width: 1.0;" width="697" x="123.5" y="399.5781"/><line style="stroke: #A80036; stroke-width: 1.0; stroke-dasharray: 5.0,5.0;" x1="27" x2="27" y1="117.25" y2="547.9141"/><line style="stroke: #A80036; stroke-width: 1.0; stroke-dasharray: 5.0,5.0;" x1="178.5" x2="178.5" y1="117.25" y2="547.9141"/><line style="stroke: #A80036; stroke-width: 1.0; stroke-dasharray: 5.0,5.0;" x1="427.5" x2="427.5" y1="117.25" y2="547.9141"/><line style="stroke: #A80036; stroke-width: 1.0; stroke-dasharray: 5.0,5.0;" x1="569.5" x2="569.5" y1="117.25" y2="547.9141"/><line style="stroke: #A80036; stroke-width: 1.0; stroke-dasharray: 5.0,5.0;" x1="767.5" x2="767.5" y1="117.25" y2="547.9141"/><text fill="#000000" font-family="sans-serif" font-size="14" lengthAdjust="spacingAndGlyphs" textLength="32" x="8" y="113.9482">User</text><ellipse cx="27" cy="47.9531" fill="#FEFECE" rx="8" ry="8" style="stroke: #A80036; stroke-width: 2.0;"/><path d="M27,55.9531 L27,82.9531 M14,63.9531 L40,63.9531 M27,82.9531 L14,97.9531 M27,82.9531 L40,97.9531 " fill="none" style="stroke: #A80036; stroke-width: 2.0;"/><text fill="#000000" font-family="sans-serif" font-size="14" lengthAdjust="spacingAndGlyphs" textLength="32" x="8" y="559.9092">User</text><ellipse cx="27" cy="573.2109" fill="#FEFECE" rx="8" ry="8" style="stroke: #A80036; stroke-width: 2.0;"/><path d="M27,581.2109 L27,608.2109 M14,589.2109 L40,589.2109 M27,608.2109 L14,623.2109 M27,608.2109 L40,623.2109 " fill="none" style="stroke: #A80036; stroke-width: 2.0;"/><rect fill="#FEFECE" height="30.2969" style="stroke: #A80036; stroke-width: 1.5;" width="91" x="133.5" y="85.9531"/><text fill="#000000" font-family="sans-serif" font-size="14" lengthAdjust="spacingAndGlyphs" textLength="77" x="140.5" y="105.9482">Host Agent</text><rect fill="#FEFECE" height="30.2969" style="stroke: #A80036; stroke-width: 1.5;" width="91" x="133.5" y="546.9141"/><text fill="#000000" font-family="sans-serif" font-size="14" lengthAdjust="spacingAndGlyphs" textLength="77" x="140.5" y="566.9092">Host Agent</text><rect fill="#FEFECE" height="30.2969" style="stroke: #A80036; stroke-width: 1.5;" width="139" x="358.5" y="85.9531"/><text fill="#000000" font-family="sans-serif" font-size="14" lengthAdjust="spacingAndGlyphs" textLength="125" x="365.5" y="105.9482">ResearchSpec CLI</text><rect fill="#FEFECE" height="30.2969" style="stroke: #A80036; stroke-width: 1.5;" width="139" x="358.5" y="546.9141"/><text fill="#000000" font-family="sans-serif" font-size="14" lengthAdjust="spacingAndGlyphs" textLength="125" x="365.5" y="566.9092">ResearchSpec CLI</text><rect fill="#FEFECE" height="30.2969" style="stroke: #A80036; stroke-width: 1.5;" width="125" x="507.5" y="85.9531"/><text fill="#000000" font-family="sans-serif" font-size="14" lengthAdjust="spacingAndGlyphs" textLength="111" x="514.5" y="105.9482">academic-paper</text><rect fill="#FEFECE" height="30.2969" style="stroke: #A80036; stroke-width: 1.5;" width="125" x="507.5" y="546.9141"/><text fill="#000000" font-family="sans-serif" font-size="14" lengthAdjust="spacingAndGlyphs" textLength="111" x="514.5" y="566.9092">academic-paper</text><text fill="#000000" font-family="sans-serif" font-size="14" lengthAdjust="spacingAndGlyphs" textLength="79" x="725.5" y="113.9482">Project files</text><path d="M750,64.9531 C750,54.9531 768,54.9531 768,54.9531 C768,54.9531 786,54.9531 786,64.9531 L786,90.9531 C786,100.9531 768,100.9531 768,100.9531 C768,100.9531 750,100.9531 750,90.9531 L750,64.9531 " fill="#FEFECE" style="stroke: #000000; stroke-width: 1.5;"/><path d="M750,64.9531 C750,74.9531 768,74.9531 768,74.9531 C768,74.9531 786,74.9531 786,64.9531 " fill="none" style="stroke: #000000; stroke-width: 1.5;"/><text fill="#000000" font-family="sans-serif" font-size="14" lengthAdjust="spacingAndGlyphs" textLength="79" x="725.5" y="559.9092">Project files</text><path d="M750,573.2109 C750,563.2109 768,563.2109 768,563.2109 C768,563.2109 786,563.2109 786,573.2109 L786,599.2109 C786,609.2109 768,609.2109 768,609.2109 C768,609.2109 750,609.2109 750,599.2109 L750,573.2109 " fill="#FEFECE" style="stroke: #000000; stroke-width: 1.5;"/><path d="M750,573.2109 C750,583.2109 768,583.2109 768,583.2109 C768,583.2109 786,583.2109 786,573.2109 " fill="none" style="stroke: #000000; stroke-width: 1.5;"/><polygon fill="#A80036" points="416,144.3828,426,148.3828,416,152.3828,420,148.3828" style="stroke: #A80036; stroke-width: 1.0;"/><line style="stroke: #A80036; stroke-width: 1.0;" x1="179" x2="422" y1="148.3828" y2="148.3828"/><text fill="#000000" font-family="sans-serif" font-size="13" lengthAdjust="spacingAndGlyphs" textLength="225" x="186" y="143.3169">instructions profile:academic-paper</text><polygon fill="#A80036" points="190,188.6484,180,192.6484,190,196.6484,186,192.6484" style="stroke: #A80036; stroke-width: 1.0;"/><line style="stroke: #A80036; stroke-width: 1.0; stroke-dasharray: 2.0,2.0;" x1="184" x2="427" y1="192.6484" y2="192.6484"/><text fill="#000000" font-family="sans-serif" font-size="13" lengthAdjust="spacingAndGlyphs" textLength="147" x="196" y="172.4497">specs + handoff inputs</text><text fill="#000000" font-family="sans-serif" font-size="13" lengthAdjust="spacingAndGlyphs" textLength="152" x="196" y="187.5825">outputs + Gates + cost</text><polygon fill="#A80036" points="38,217.7813,28,221.7813,38,225.7813,34,221.7813" style="stroke: #A80036; stroke-width: 1.0;"/><line style="stroke: #A80036; stroke-width: 1.0;" x1="32" x2="178" y1="221.7813" y2="221.7813"/><text fill="#000000" font-family="sans-serif" font-size="13" lengthAdjust="spacingAndGlyphs" textLength="128" x="44" y="216.7153">confirm exact mode</text><polygon fill="#A80036" points="167,246.9141,177,250.9141,167,254.9141,171,250.9141" style="stroke: #A80036; stroke-width: 1.0;"/><line style="stroke: #A80036; stroke-width: 1.0; stroke-dasharray: 2.0,2.0;" x1="27" x2="173" y1="250.9141" y2="250.9141"/><text fill="#000000" font-family="sans-serif" font-size="13" lengthAdjust="spacingAndGlyphs" textLength="48" x="34" y="245.8481">confirm</text><polygon fill="#A80036" points="416,276.0469,426,280.0469,416,284.0469,420,280.0469" style="stroke: #A80036; stroke-width: 1.0;"/><line style="stroke: #A80036; stroke-width: 1.0;" x1="179" x2="422" y1="280.0469" y2="280.0469"/><text fill="#000000" font-family="sans-serif" font-size="13" lengthAdjust="spacingAndGlyphs" textLength="30" x="186" y="274.981">start</text><polygon fill="#A80036" points="756,305.1797,766,309.1797,756,313.1797,760,309.1797" style="stroke: #A80036; stroke-width: 1.0;"/><line style="stroke: #A80036; stroke-width: 1.0;" x1="428" x2="762" y1="309.1797" y2="309.1797"/><text fill="#000000" font-family="sans-serif" font-size="13" lengthAdjust="spacingAndGlyphs" textLength="239" x="435" y="304.1138">run.yaml + graph.yaml + handoff.md</text><polygon fill="#A80036" points="558,334.3125,568,338.3125,558,342.3125,562,338.3125" style="stroke: #A80036; stroke-width: 1.0;"/><line style="stroke: #A80036; stroke-width: 1.0;" x1="179" x2="564" y1="338.3125" y2="338.3125"/><text fill="#000000" font-family="sans-serif" font-size="13" lengthAdjust="spacingAndGlyphs" textLength="171" x="186" y="333.2466">bounded writing or revision</text><path d="M123.5,353.3125 L187.5,353.3125 L187.5,360.3125 L177.5,370.3125 L123.5,370.3125 L123.5,353.3125 " fill="#EEEEEE" style="stroke: #000000; stroke-width: 1.0;"/><rect fill="none" height="119.3359" style="stroke: #000000; stroke-width: 2.0;" width="697" x="123.5" y="353.3125"/><text fill="#000000" font-family="sans-serif" font-size="13" font-weight="bold" lengthAdjust="spacingAndGlyphs" textLength="19" x="138.5" y="366.3794">alt</text><text fill="#000000" font-family="sans-serif" font-size="11" font-weight="bold" lengthAdjust="spacingAndGlyphs" textLength="109" x="202.5" y="365.5229">[ordinary output]</text><polygon fill="#A80036" points="756,387.5781,766,391.5781,756,395.5781,760,391.5781" style="stroke: #A80036; stroke-width: 1.0;"/><line style="stroke: #A80036; stroke-width: 1.0;" x1="570" x2="762" y1="391.5781" y2="391.5781"/><text fill="#000000" font-family="sans-serif" font-size="13" lengthAdjust="spacingAndGlyphs" textLength="174" x="577" y="386.5122">external manuscript output</text><line style="stroke: #000000; stroke-width: 1.0; stroke-dasharray: 2.0,2.0;" x1="123.5" x2="820.5" y1="400.5781" y2="400.5781"/><text fill="#000000" font-family="sans-serif" font-size="11" font-weight="bold" lengthAdjust="spacingAndGlyphs" textLength="101" x="128.5" y="410.7886">[revision patch]</text><polygon fill="#A80036" points="756,431.5156,766,435.5156,756,439.5156,760,435.5156" style="stroke: #A80036; stroke-width: 1.0;"/><line style="stroke: #A80036; stroke-width: 1.0;" x1="570" x2="762" y1="435.5156" y2="435.5156"/><text fill="#000000" font-family="sans-serif" font-size="13" lengthAdjust="spacingAndGlyphs" textLength="92" x="577" y="430.4497">revision_patch</text><polygon fill="#A80036" points="756,460.6484,766,464.6484,756,468.6484,760,464.6484" style="stroke: #A80036; stroke-width: 1.0;"/><line style="stroke: #A80036; stroke-width: 1.0;" x1="179" x2="762" y1="464.6484" y2="464.6484"/><text fill="#000000" font-family="sans-serif" font-size="13" lengthAdjust="spacingAndGlyphs" textLength="203" x="186" y="459.5825">optional stateless helper output</text><polygon fill="#A80036" points="756,496.7813,766,500.7813,756,504.7813,760,500.7813" style="stroke: #A80036; stroke-width: 1.0;"/><line style="stroke: #A80036; stroke-width: 1.0;" x1="570" x2="762" y1="500.7813" y2="500.7813"/><text fill="#000000" font-family="sans-serif" font-size="13" lengthAdjust="spacingAndGlyphs" textLength="145" x="577" y="495.7153">update owning handoff</text><polygon fill="#A80036" points="416,525.9141,426,529.9141,416,533.9141,420,529.9141" style="stroke: #A80036; stroke-width: 1.0;"/><line style="stroke: #A80036; stroke-width: 1.0;" x1="179" x2="422" y1="529.9141" y2="529.9141"/><text fill="#000000" font-family="sans-serif" font-size="13" lengthAdjust="spacingAndGlyphs" textLength="195" x="186" y="524.8481">decide / advance as confirmed</text></g></svg>