<?xml version="1.0" encoding="UTF-8" standalone="no"?><svg xmlns="http://www.w3.org/2000/svg" xmlns:xlink="http://www.w3.org/1999/xlink" contentScriptType="application/ecmascript" contentStyleType="text/css" height="1021px" preserveAspectRatio="none" style="width:1012px;height:1021px;" version="1.1" viewBox="0 0 1012 1021" width="1012px" zoomAndPan="magnify"><defs/><g><text fill="#000000" font-family="sans-serif" font-size="18" lengthAdjust="spacingAndGlyphs" textLength="539" x="237.75" y="26.708">Adaptive default：Obligation、evidence、Gate 与 completion</text><rect fill="#FFFFFF" height="312.3984" style="stroke: #000000; stroke-width: 2.0;" width="755" x="246.5" y="279.9141"/><rect fill="#FFFFFF" height="193.8672" style="stroke: #000000; stroke-width: 2.0;" width="735" x="256.5" y="391.4453"/><rect fill="#FFFFFF" height="103.3359" style="stroke: none; stroke-width: 1.0;" width="735" x="256.5" y="481.9766"/><rect fill="#FFFFFF" height="133.6641" style="stroke: #000000; stroke-width: 2.0;" width="978.5" x="13" y="606.3125"/><rect fill="#FFFFFF" height="104.5313" style="stroke: #000000; stroke-width: 2.0;" width="659.5" x="13" y="753.9766"/><line style="stroke: #A80036; stroke-width: 1.0; stroke-dasharray: 5.0,5.0;" x1="42" x2="42" y1="117.25" y2="933.7734"/><line style="stroke: #A80036; stroke-width: 1.0; stroke-dasharray: 5.0,5.0;" x1="311.5" x2="311.5" y1="117.25" y2="933.7734"/><line style="stroke: #A80036; stroke-width: 1.0; stroke-dasharray: 5.0,5.0;" x1="592.5" x2="592.5" y1="117.25" y2="933.7734"/><line style="stroke: #A80036; stroke-width: 1.0; stroke-dasharray: 5.0,5.0;" x1="731.5" x2="731.5" y1="117.25" y2="933.7734"/><line style="stroke: #A80036; stroke-width: 1.0; stroke-dasharray: 5.0,5.0;" x1="939.5" x2="939.5" y1="117.25" y2="933.7734"/><text fill="#000000" font-family="sans-serif" font-size="14" lengthAdjust="spacingAndGlyphs" textLength="32" x="23" y="113.9482">User</text><ellipse cx="42" cy="47.9531" fill="#FEFECE" rx="8" ry="8" style="stroke: #A80036; stroke-width: 2.0;"/><path d="M42,55.9531 L42,82.9531 M29,63.9531 L55,63.9531 M42,82.9531 L29,97.9531 M42,82.9531 L55,97.9531 " fill="none" style="stroke: #A80036; stroke-width: 2.0;"/><text fill="#000000" font-family="sans-serif" font-size="14" lengthAdjust="spacingAndGlyphs" textLength="32" x="23" y="945.7686">User</text><ellipse cx="42" cy="959.0703" fill="#FEFECE" rx="8" ry="8" style="stroke: #A80036; stroke-width: 2.0;"/><path d="M42,967.0703 L42,994.0703 M29,975.0703 L55,975.0703 M42,994.0703 L29,1009.0703 M42,994.0703 L55,1009.0703 " fill="none" style="stroke: #A80036; stroke-width: 2.0;"/><rect fill="#FEFECE" height="30.2969" style="stroke: #A80036; stroke-width: 1.5;" width="91" x="266.5" y="85.9531"/><text fill="#000000" font-family="sans-serif" font-size="14" lengthAdjust="spacingAndGlyphs" textLength="77" x="273.5" y="105.9482">Host Agent</text><rect fill="#FEFECE" height="30.2969" style="stroke: #A80036; stroke-width: 1.5;" width="91" x="266.5" y="932.7734"/><text fill="#000000" font-family="sans-serif" font-size="14" lengthAdjust="spacingAndGlyphs" textLength="77" x="273.5" y="952.7686">Host Agent</text><rect fill="#FEFECE" height="30.2969" style="stroke: #A80036; stroke-width: 1.5;" width="139" x="523.5" y="85.9531"/><text fill="#000000" font-family="sans-serif" font-size="14" lengthAdjust="spacingAndGlyphs" textLength="125" x="530.5" y="105.9482">ResearchSpec CLI</text><rect fill="#FEFECE" height="30.2969" style="stroke: #A80036; stroke-width: 1.5;" width="139" x="523.5" y="932.7734"/><text fill="#000000" font-family="sans-serif" font-size="14" lengthAdjust="spacingAndGlyphs" textLength="125" x="530.5" y="952.7686">ResearchSpec CLI</text><rect fill="#FEFECE" height="30.2969" style="stroke: #A80036; stroke-width: 1.5;" width="119" x="672.5" y="85.9531"/><text fill="#000000" font-family="sans-serif" font-size="14" lengthAdjust="spacingAndGlyphs" textLength="105" x="679.5" y="105.9482">ARSU producer</text><rect fill="#FEFECE" height="30.2969" style="stroke: #A80036; stroke-width: 1.5;" width="119" x="672.5" y="932.7734"/><text fill="#000000" font-family="sans-serif" font-size="14" lengthAdjust="spacingAndGlyphs" textLength="105" x="679.5" y="952.7686">ARSU producer</text><text fill="#000000" font-family="sans-serif" font-size="14" lengthAdjust="spacingAndGlyphs" textLength="77" x="898.5" y="113.9482">Workspace</text><path d="M922,64.9531 C922,54.9531 940,54.9531 940,54.9531 C940,54.9531 958,54.9531 958,64.9531 L958,90.9531 C958,100.9531 940,100.9531 940,100.9531 C940,100.9531 922,100.9531 922,90.9531 L922,64.9531 " fill="#FEFECE" style="stroke: #000000; stroke-width: 1.5;"/><path d="M922,64.9531 C922,74.9531 940,74.9531 940,74.9531 C940,74.9531 958,74.9531 958,64.9531 " fill="none" style="stroke: #000000; stroke-width: 1.5;"/><text fill="#000000" font-family="sans-serif" font-size="14" lengthAdjust="spacingAndGlyphs" textLength="77" x="898.5" y="945.7686">Workspace</text><path d="M922,959.0703 C922,949.0703 940,949.0703 940,949.0703 C940,949.0703 958,949.0703 958,959.0703 L958,985.0703 C958,995.0703 940,995.0703 940,995.0703 C940,995.0703 922,995.0703 922,985.0703 L922,959.0703 " fill="#FEFECE" style="stroke: #000000; stroke-width: 1.5;"/><path d="M922,959.0703 C922,969.0703 940,969.0703 940,969.0703 C940,969.0703 958,969.0703 958,959.0703 " fill="none" style="stroke: #000000; stroke-width: 1.5;"/><polygon fill="#A80036" points="581,144.3828,591,148.3828,581,152.3828,585,148.3828" style="stroke: #A80036; stroke-width: 1.0;"/><line style="stroke: #A80036; stroke-width: 1.0;" x1="312" x2="587" y1="148.3828" y2="148.3828"/><text fill="#000000" font-family="sans-serif" font-size="13" lengthAdjust="spacingAndGlyphs" textLength="244" x="319" y="143.3169">status + instructions subflow:&lt;route&gt;</text><polygon fill="#A80036" points="53,173.5156,43,177.5156,53,181.5156,49,177.5156" style="stroke: #A80036; stroke-width: 1.0;"/><line style="stroke: #A80036; stroke-width: 1.0;" x1="47" x2="311" y1="177.5156" y2="177.5156"/><text fill="#000000" font-family="sans-serif" font-size="13" lengthAdjust="spacingAndGlyphs" textLength="246" x="59" y="172.4497">route, obligations, Gates, risk and cost</text><polygon fill="#A80036" points="300,202.6484,310,206.6484,300,210.6484,304,206.6484" style="stroke: #A80036; stroke-width: 1.0;"/><line style="stroke: #A80036; stroke-width: 1.0; stroke-dasharray: 2.0,2.0;" x1="42" x2="306" y1="206.6484" y2="206.6484"/><text fill="#000000" font-family="sans-serif" font-size="13" lengthAdjust="spacingAndGlyphs" textLength="86" x="49" y="201.5825">confirm route</text><polygon fill="#A80036" points="581,231.7813,591,235.7813,581,239.7813,585,235.7813" style="stroke: #A80036; stroke-width: 1.0;"/><line style="stroke: #A80036; stroke-width: 1.0;" x1="312" x2="587" y1="235.7813" y2="235.7813"/><text fill="#000000" font-family="sans-serif" font-size="13" lengthAdjust="spacingAndGlyphs" textLength="32" x="319" y="230.7153">Start</text><polygon fill="#A80036" points="928,260.9141,938,264.9141,928,268.9141,932,264.9141" style="stroke: #A80036; stroke-width: 1.0;"/><line style="stroke: #A80036; stroke-width: 1.0;" x1="593" x2="934" y1="264.9141" y2="264.9141"/><text fill="#000000" font-family="sans-serif" font-size="13" lengthAdjust="spacingAndGlyphs" textLength="226" x="600" y="259.8481">adaptive-start receipt + obligations</text><path d="M246.5,279.9141 L323.5,279.9141 L323.5,286.9141 L313.5,296.9141 L246.5,296.9141 L246.5,279.9141 " fill="#EEEEEE" style="stroke: #000000; stroke-width: 1.0;"/><rect fill="none" height="312.3984" style="stroke: #000000; stroke-width: 2.0;" width="755" x="246.5" y="279.9141"/><text fill="#000000" font-family="sans-serif" font-size="13" font-weight="bold" lengthAdjust="spacingAndGlyphs" textLength="32" x="261.5" y="292.981">loop</text><text fill="#000000" font-family="sans-serif" font-size="11" font-weight="bold" lengthAdjust="spacingAndGlyphs" textLength="173" x="338.5" y="292.1245">[each available obligation]</text><polygon fill="#A80036" points="581,314.1797,591,318.1797,581,322.1797,585,318.1797" style="stroke: #A80036; stroke-width: 1.0;"/><line style="stroke: #A80036; stroke-width: 1.0;" x1="312" x2="587" y1="318.1797" y2="318.1797"/><text fill="#000000" font-family="sans-serif" font-size="13" lengthAdjust="spacingAndGlyphs" textLength="257" x="319" y="313.1138">instructions obligation:&lt;instance&gt;/&lt;id&gt;</text><polygon fill="#A80036" points="720,343.3125,730,347.3125,720,351.3125,724,347.3125" style="stroke: #A80036; stroke-width: 1.0;"/><line style="stroke: #A80036; stroke-width: 1.0;" x1="312" x2="726" y1="347.3125" y2="347.3125"/><text fill="#000000" font-family="sans-serif" font-size="13" lengthAdjust="spacingAndGlyphs" textLength="152" x="319" y="342.2466">bounded semantic work</text><polygon fill="#A80036" points="928,372.4453,938,376.4453,928,380.4453,932,376.4453" style="stroke: #A80036; stroke-width: 1.0;"/><line style="stroke: #A80036; stroke-width: 1.0;" x1="732" x2="934" y1="376.4453" y2="376.4453"/><text fill="#000000" font-family="sans-serif" font-size="13" lengthAdjust="spacingAndGlyphs" textLength="184" x="739" y="371.3794">candidate / attempt material</text><path d="M256.5,391.4453 L320.5,391.4453 L320.5,398.4453 L310.5,408.4453 L256.5,408.4453 L256.5,391.4453 " fill="#EEEEEE" style="stroke: #000000; stroke-width: 1.0;"/><rect fill="none" height="193.8672" style="stroke: #000000; stroke-width: 2.0;" width="735" x="256.5" y="391.4453"/><text fill="#000000" font-family="sans-serif" font-size="13" font-weight="bold" lengthAdjust="spacingAndGlyphs" textLength="19" x="271.5" y="404.5122">alt</text><text fill="#000000" font-family="sans-serif" font-size="11" font-weight="bold" lengthAdjust="spacingAndGlyphs" textLength="107" x="335.5" y="403.6558">[record_attempt]</text><polygon fill="#A80036" points="581,440.8438,591,444.8438,581,448.8438,585,444.8438" style="stroke: #A80036; stroke-width: 1.0;"/><line style="stroke: #A80036; stroke-width: 1.0;" x1="312" x2="587" y1="444.8438" y2="444.8438"/><text fill="#000000" font-family="sans-serif" font-size="13" lengthAdjust="spacingAndGlyphs" textLength="227" x="319" y="424.645">submit obligation:&lt;instance&gt;/&lt;id&gt;</text><text fill="#000000" font-family="sans-serif" font-size="13" lengthAdjust="spacingAndGlyphs" textLength="169" x="319" y="439.7778">operation: record_attempt</text><polygon fill="#A80036" points="928,469.9766,938,473.9766,928,477.9766,932,473.9766" style="stroke: #A80036; stroke-width: 1.0;"/><line style="stroke: #A80036; stroke-width: 1.0;" x1="593" x2="934" y1="473.9766" y2="473.9766"/><text fill="#000000" font-family="sans-serif" font-size="13" lengthAdjust="spacingAndGlyphs" textLength="178" x="600" y="468.9106">append attempt ledger only</text><line style="stroke: #000000; stroke-width: 1.0; stroke-dasharray: 2.0,2.0;" x1="256.5" x2="991.5" y1="482.9766" y2="482.9766"/><text fill="#000000" font-family="sans-serif" font-size="11" font-weight="bold" lengthAdjust="spacingAndGlyphs" textLength="117" x="261.5" y="493.187">[accept_evidence]</text><polygon fill="#A80036" points="581,529.0469,591,533.0469,581,537.0469,585,533.0469" style="stroke: #A80036; stroke-width: 1.0;"/><line style="stroke: #A80036; stroke-width: 1.0;" x1="312" x2="587" y1="533.0469" y2="533.0469"/><text fill="#000000" font-family="sans-serif" font-size="13" lengthAdjust="spacingAndGlyphs" textLength="227" x="319" y="512.8481">submit obligation:&lt;instance&gt;/&lt;id&gt;</text><text fill="#000000" font-family="sans-serif" font-size="13" lengthAdjust="spacingAndGlyphs" textLength="176" x="319" y="527.981">operation: accept_evidence</text><polygon fill="#A80036" points="928,573.3125,938,577.3125,928,581.3125,932,577.3125" style="stroke: #A80036; stroke-width: 1.0;"/><line style="stroke: #A80036; stroke-width: 1.0;" x1="593" x2="934" y1="577.3125" y2="577.3125"/><text fill="#000000" font-family="sans-serif" font-size="13" lengthAdjust="spacingAndGlyphs" textLength="181" x="600" y="557.1138">attempt + obligation receipt</text><text fill="#000000" font-family="sans-serif" font-size="13" lengthAdjust="spacingAndGlyphs" textLength="239" x="600" y="572.2466">registry + accepted evidence in state</text><path d="M13,606.3125 L83,606.3125 L83,613.3125 L73,623.3125 L13,623.3125 L13,606.3125 " fill="#EEEEEE" style="stroke: #000000; stroke-width: 1.0;"/><rect fill="none" height="133.6641" style="stroke: #000000; stroke-width: 2.0;" width="978.5" x="13" y="606.3125"/><text fill="#000000" font-family="sans-serif" font-size="13" font-weight="bold" lengthAdjust="spacingAndGlyphs" textLength="25" x="28" y="619.3794">opt</text><text fill="#000000" font-family="sans-serif" font-size="11" font-weight="bold" lengthAdjust="spacingAndGlyphs" textLength="85" x="98" y="618.5229">[formal Gate]</text><polygon fill="#A80036" points="53,640.5781,43,644.5781,53,648.5781,49,644.5781" style="stroke: #A80036; stroke-width: 1.0;"/><line style="stroke: #A80036; stroke-width: 1.0;" x1="47" x2="311" y1="644.5781" y2="644.5781"/><text fill="#000000" font-family="sans-serif" font-size="13" lengthAdjust="spacingAndGlyphs" textLength="172" x="59" y="639.5122">Verify verdict and evidence</text><polygon fill="#A80036" points="300,669.7109,310,673.7109,300,677.7109,304,673.7109" style="stroke: #A80036; stroke-width: 1.0;"/><line style="stroke: #A80036; stroke-width: 1.0; stroke-dasharray: 2.0,2.0;" x1="42" x2="306" y1="673.7109" y2="673.7109"/><text fill="#000000" font-family="sans-serif" font-size="13" lengthAdjust="spacingAndGlyphs" textLength="130" x="49" y="668.645">confirm or challenge</text><polygon fill="#A80036" points="581,698.8438,591,702.8438,581,706.8438,585,702.8438" style="stroke: #A80036; stroke-width: 1.0;"/><line style="stroke: #A80036; stroke-width: 1.0;" x1="312" x2="587" y1="702.8438" y2="702.8438"/><text fill="#000000" font-family="sans-serif" font-size="13" lengthAdjust="spacingAndGlyphs" textLength="194" x="319" y="697.7778">submit gate:&lt;instance&gt;/&lt;id&gt;</text><polygon fill="#A80036" points="928,727.9766,938,731.9766,928,735.9766,932,731.9766" style="stroke: #A80036; stroke-width: 1.0;"/><line style="stroke: #A80036; stroke-width: 1.0;" x1="593" x2="934" y1="731.9766" y2="731.9766"/><text fill="#000000" font-family="sans-serif" font-size="13" lengthAdjust="spacingAndGlyphs" textLength="138" x="600" y="726.9106">Gate receipt + ledger</text><path d="M13,753.9766 L83,753.9766 L83,760.9766 L73,770.9766 L13,770.9766 L13,753.9766 " fill="#EEEEEE" style="stroke: #000000; stroke-width: 1.0;"/><rect fill="none" height="104.5313" style="stroke: #000000; stroke-width: 2.0;" width="659.5" x="13" y="753.9766"/><text fill="#000000" font-family="sans-serif" font-size="13" font-weight="bold" lengthAdjust="spacingAndGlyphs" textLength="25" x="28" y="767.0435">opt</text><text fill="#000000" font-family="sans-serif" font-size="11" font-weight="bold" lengthAdjust="spacingAndGlyphs" textLength="167" x="98" y="766.187">[waiver or not-applicable]</text><polygon fill="#A80036" points="53,788.2422,43,792.2422,53,796.2422,49,792.2422" style="stroke: #A80036; stroke-width: 1.0;"/><line style="stroke: #A80036; stroke-width: 1.0;" x1="47" x2="311" y1="792.2422" y2="792.2422"/><text fill="#000000" font-family="sans-serif" font-size="13" lengthAdjust="spacingAndGlyphs" textLength="179" x="59" y="787.1763">case action choices and risk</text><polygon fill="#A80036" points="300,817.375,310,821.375,300,825.375,304,821.375" style="stroke: #A80036; stroke-width: 1.0;"/><line style="stroke: #A80036; stroke-width: 1.0; stroke-dasharray: 2.0,2.0;" x1="42" x2="306" y1="821.375" y2="821.375"/><text fill="#000000" font-family="sans-serif" font-size="13" lengthAdjust="spacingAndGlyphs" textLength="102" x="49" y="816.3091">explicit Decision</text><polygon fill="#A80036" points="581,846.5078,591,850.5078,581,854.5078,585,850.5078" style="stroke: #A80036; stroke-width: 1.0;"/><line style="stroke: #A80036; stroke-width: 1.0;" x1="312" x2="587" y1="850.5078" y2="850.5078"/><text fill="#000000" font-family="sans-serif" font-size="13" lengthAdjust="spacingAndGlyphs" textLength="157" x="319" y="845.4419">decide case-action:&lt;id&gt;</text><polygon fill="#A80036" points="581,882.6406,591,886.6406,581,890.6406,585,886.6406" style="stroke: #A80036; stroke-width: 1.0;"/><line style="stroke: #A80036; stroke-width: 1.0;" x1="312" x2="587" y1="886.6406" y2="886.6406"/><text fill="#000000" font-family="sans-serif" font-size="13" lengthAdjust="spacingAndGlyphs" textLength="246" x="319" y="881.5747">advance completion:&lt;instance&gt;/&lt;id&gt;</text><polygon fill="#A80036" points="928,911.7734,938,915.7734,928,919.7734,932,915.7734" style="stroke: #A80036; stroke-width: 1.0;"/><line style="stroke: #A80036; stroke-width: 1.0;" x1="593" x2="934" y1="915.7734" y2="915.7734"/><text fill="#000000" font-family="sans-serif" font-size="13" lengthAdjust="spacingAndGlyphs" textLength="171" x="600" y="910.7075">completion receipt + state</text><!--MD5=[95d0783caf74d689a940cd6f3c9f61c4]
@startuml
title Adaptive default：Obligation、evidence、Gate 与 completion
skinparam shadowing false
actor User
participant "Host Agent" as Agent
participant "ResearchSpec CLI" as CLI
participant "ARSU producer" as ARSU
database "Workspace" as Files

Agent -> CLI : status + instructions subflow:<route>
Agent -> User : route, obligations, Gates, risk and cost
User - -> Agent : confirm route
Agent -> CLI : Start
CLI -> Files : adaptive-start receipt + obligations

loop each available obligation
  Agent -> CLI : instructions obligation:<instance>/<id>
  Agent -> ARSU : bounded semantic work
  ARSU -> Files : candidate / attempt material
  alt record_attempt
    Agent -> CLI : submit obligation:<instance>/<id>\noperation: record_attempt
    CLI -> Files : append attempt ledger only
  else accept_evidence
    Agent -> CLI : submit obligation:<instance>/<id>\noperation: accept_evidence
    CLI -> Files : attempt + obligation receipt\nregistry + accepted evidence in state
  end
end

opt formal Gate
  Agent -> User : Verify verdict and evidence
  User - -> Agent : confirm or challenge
  Agent -> CLI : submit gate:<instance>/<id>
  CLI -> Files : Gate receipt + ledger
end

opt waiver or not-applicable
  Agent -> User : case action choices and risk
  User - -> Agent : explicit Decision
  Agent -> CLI : decide case-action:<id>
end

Agent -> CLI : advance completion:<instance>/<id>
CLI -> Files : completion receipt + state
@enduml

PlantUML version 1.2020.02(Sun Mar 01 18:22:07 CST 2020)
(GPL source distribution)
Java Runtime: OpenJDK Runtime Environment
JVM: OpenJDK 64-Bit Server VM
Java Version: 21.0.11+10-1-24.04.2-Ubuntu
Operating System: Linux
Default Encoding: UTF-8
Language: en
Country: null
--></g></svg>