<?xml version="1.0" encoding="UTF-8" standalone="no"?><svg xmlns="http://www.w3.org/2000/svg" xmlns:xlink="http://www.w3.org/1999/xlink" contentScriptType="application/ecmascript" contentStyleType="text/css" height="908px" preserveAspectRatio="none" style="width:1634px;height:908px;" version="1.1" viewBox="0 0 1634 908" width="1634px" zoomAndPan="magnify"><defs/><g><text fill="#000000" font-family="sans-serif" font-size="18" lengthAdjust="spacingAndGlyphs" textLength="483" x="574.5" y="26.708">Shared：Contract change 与 draft patch 的独立生命周期</text><ellipse cx="826.75" cy="40.9531" fill="#000000" rx="10" ry="10" style="stroke: none; stroke-width: 1.0;"/><polygon fill="#FEFECE" points="783.25,70.9531,870.25,70.9531,882.25,82.9531,870.25,94.9531,783.25,94.9531,771.25,82.9531,783.25,70.9531" style="stroke: #A80036; stroke-width: 1.5;"/><text fill="#000000" font-family="sans-serif" font-size="11" lengthAdjust="spacingAndGlyphs" textLength="87" x="783.25" y="86.7612">Change target?</text><text fill="#000000" font-family="sans-serif" font-size="11" lengthAdjust="spacingAndGlyphs" textLength="85" x="686.25" y="80.3589">stable contract</text><text fill="#000000" font-family="sans-serif" font-size="11" lengthAdjust="spacingAndGlyphs" textLength="52" x="882.25" y="80.3589">draft text</text><rect fill="#FFFFFF" height="602.7266" style="stroke: #000000; stroke-width: 2.0;" width="822" x="10" y="104.9531"/><path d="M135,105.9531 L135,114.25 L125,124.25 L10,124.25 " fill="none" style="stroke: #000000; stroke-width: 2.0;"/><text fill="#000000" font-family="sans-serif" font-size="14" lengthAdjust="spacingAndGlyphs" textLength="115" x="13" y="118.9482">Contract change</text><rect fill="#FEFECE" height="33.9688" rx="12.5" ry="12.5" style="stroke: #A80036; stroke-width: 1.5;" width="254" x="299" y="141.25"/><text fill="#000000" font-family="sans-serif" font-size="12" lengthAdjust="spacingAndGlyphs" textLength="234" x="309" y="162.3887">Inspect stable contract and evidence</text><rect fill="#FEFECE" height="47.9375" rx="12.5" ry="12.5" style="stroke: #A80036; stroke-width: 1.5;" width="234" x="309" y="195.2188"/><text fill="#000000" font-family="sans-serif" font-size="12" lengthAdjust="spacingAndGlyphs" textLength="190" x="319" y="216.3574">Propose creates proposal.md,</text><text fill="#000000" font-family="sans-serif" font-size="12" lengthAdjust="spacingAndGlyphs" textLength="214" x="319" y="230.3262">tasks.md and contract-patch.yaml</text><rect fill="#FEFECE" height="47.9375" rx="12.5" ry="12.5" style="stroke: #A80036; stroke-width: 1.5;" width="314" x="269" y="277.125"/><text fill="#000000" font-family="sans-serif" font-size="12" lengthAdjust="spacingAndGlyphs" textLength="294" x="279" y="298.2637">Human reviews exact current/proposed values,</text><text fill="#000000" font-family="sans-serif" font-size="12" lengthAdjust="spacingAndGlyphs" textLength="179" x="279" y="312.2324">evidence, risk and write plan</text><polygon fill="#FEFECE" points="105,359.0313,211,359.0313,223,371.0313,211,383.0313,105,383.0313,93,371.0313,105,359.0313" style="stroke: #A80036; stroke-width: 1.5;"/><text fill="#000000" font-family="sans-serif" font-size="11" lengthAdjust="spacingAndGlyphs" textLength="37" x="162" y="393.2417">accept</text><text fill="#000000" font-family="sans-serif" font-size="11" lengthAdjust="spacingAndGlyphs" textLength="106" x="105" y="374.8394">Contract Decision?</text><rect fill="#FEFECE" height="33.9688" rx="12.5" ry="12.5" style="stroke: #A80036; stroke-width: 1.5;" width="215" x="50.5" y="415.8359"/><text fill="#000000" font-family="sans-serif" font-size="12" lengthAdjust="spacingAndGlyphs" textLength="195" x="60.5" y="436.9746">Revalidate target/current value</text><rect fill="#FEFECE" height="33.9688" rx="12.5" ry="12.5" style="stroke: #A80036; stroke-width: 1.5;" width="130" x="93" y="484.8047"/><text fill="#000000" font-family="sans-serif" font-size="12" lengthAdjust="spacingAndGlyphs" textLength="110" x="103" y="505.9434">Apply stable spec</text><rect fill="#FEFECE" height="33.9688" rx="12.5" ry="12.5" style="stroke: #A80036; stroke-width: 1.5;" width="276" x="20" y="553.7734"/><text fill="#000000" font-family="sans-serif" font-size="12" lengthAdjust="spacingAndGlyphs" textLength="256" x="30" y="574.9121">Write apply receipt and registry evidence</text><rect fill="#FEFECE" height="33.9688" rx="12.5" ry="12.5" style="stroke: #A80036; stroke-width: 1.5;" width="253" x="31.5" y="621.7109"/><text fill="#000000" font-family="sans-serif" font-size="12" lengthAdjust="spacingAndGlyphs" textLength="233" x="41.5" y="642.8496">Append contract Decision ledger last</text><polygon fill="#FEFECE" points="441,359.0313,473,359.0313,485,371.0313,473,383.0313,441,383.0313,429,371.0313,441,359.0313" style="stroke: #A80036; stroke-width: 1.5;"/><text fill="#000000" font-family="sans-serif" font-size="11" lengthAdjust="spacingAndGlyphs" textLength="32" x="441" y="374.8394">reject</text><text fill="#000000" font-family="sans-serif" font-size="11" lengthAdjust="spacingAndGlyphs" textLength="53" x="485" y="368.437">postpone</text><rect fill="#FEFECE" height="33.9688" rx="12.5" ry="12.5" style="stroke: #A80036; stroke-width: 1.5;" width="282" x="316" y="403.0313"/><text fill="#000000" font-family="sans-serif" font-size="12" lengthAdjust="spacingAndGlyphs" textLength="262" x="326" y="424.1699">Resolve contract change without applying</text><rect fill="#FEFECE" height="33.9688" rx="12.5" ry="12.5" style="stroke: #A80036; stroke-width: 1.5;" width="184" x="365" y="472"/><text fill="#000000" font-family="sans-serif" font-size="12" lengthAdjust="spacingAndGlyphs" textLength="164" x="375" y="493.1387">Append rejection Decision</text><rect fill="#FEFECE" height="33.9688" rx="12.5" ry="12.5" style="stroke: #A80036; stroke-width: 1.5;" width="208" x="611" y="481.4023"/><text fill="#000000" font-family="sans-serif" font-size="12" lengthAdjust="spacingAndGlyphs" textLength="188" x="621" y="502.541">Append non-terminal Decision</text><rect fill="#FEFECE" height="33.9688" rx="12.5" ry="12.5" style="stroke: #A80036; stroke-width: 1.5;" width="214" x="608" y="550.3711"/><text fill="#000000" font-family="sans-serif" font-size="12" lengthAdjust="spacingAndGlyphs" textLength="194" x="618" y="571.5098">Keep contract change pending</text><rect fill="#FFFFFF" height="590.7266" style="stroke: #000000; stroke-width: 2.0;" width="771" x="852" y="104.9531"/><path d="M938,105.9531 L938,114.25 L928,124.25 L852,124.25 " fill="none" style="stroke: #000000; stroke-width: 2.0;"/><text fill="#000000" font-family="sans-serif" font-size="14" lengthAdjust="spacingAndGlyphs" textLength="76" x="855" y="118.9482">Draft patch</text><rect fill="#FEFECE" height="33.9688" rx="12.5" ry="12.5" style="stroke: #A80036; stroke-width: 1.5;" width="335" x="1070" y="141.25"/><text fill="#000000" font-family="sans-serif" font-size="12" lengthAdjust="spacingAndGlyphs" textLength="315" x="1080" y="162.3887">Submit revision patch bound to base artifact/hash</text><rect fill="#FEFECE" height="33.9688" rx="12.5" ry="12.5" style="stroke: #A80036; stroke-width: 1.5;" width="186" x="1144.5" y="195.2188"/><text fill="#000000" font-family="sans-serif" font-size="12" lengthAdjust="spacingAndGlyphs" textLength="166" x="1154.5" y="216.3574">Write patch submit receipt</text><rect fill="#FEFECE" height="47.9375" rx="12.5" ry="12.5" style="stroke: #A80036; stroke-width: 1.5;" width="206" x="1134.5" y="263.1563"/><text fill="#000000" font-family="sans-serif" font-size="12" lengthAdjust="spacingAndGlyphs" textLength="177" x="1144.5" y="284.2949">Human reviews revision ops,</text><text fill="#000000" font-family="sans-serif" font-size="12" lengthAdjust="spacingAndGlyphs" textLength="186" x="1144.5" y="298.2637">semantic delta and write plan</text><polygon fill="#FEFECE" points="945,345.0625,1034,345.0625,1046,357.0625,1034,369.0625,945,369.0625,933,357.0625,945,345.0625" style="stroke: #A80036; stroke-width: 1.5;"/><text fill="#000000" font-family="sans-serif" font-size="11" lengthAdjust="spacingAndGlyphs" textLength="37" x="993.5" y="379.2729">accept</text><text fill="#000000" font-family="sans-serif" font-size="11" lengthAdjust="spacingAndGlyphs" textLength="89" x="945" y="360.8706">Patch Decision?</text><rect fill="#FEFECE" height="33.9688" rx="12.5" ry="12.5" style="stroke: #A80036; stroke-width: 1.5;" width="255" x="862" y="401.8672"/><text fill="#000000" font-family="sans-serif" font-size="12" lengthAdjust="spacingAndGlyphs" textLength="235" x="872" y="423.0059">Revalidate base hash and operations</text><rect fill="#FEFECE" height="33.9688" rx="12.5" ry="12.5" style="stroke: #A80036; stroke-width: 1.5;" width="234" x="872.5" y="470.8359"/><text fill="#000000" font-family="sans-serif" font-size="12" lengthAdjust="spacingAndGlyphs" textLength="214" x="882.5" y="491.9746">Apply patch to a new revised draft</text><rect fill="#FEFECE" height="33.9688" rx="12.5" ry="12.5" style="stroke: #A80036; stroke-width: 1.5;" width="255" x="862" y="539.8047"/><text fill="#000000" font-family="sans-serif" font-size="12" lengthAdjust="spacingAndGlyphs" textLength="235" x="872" y="560.9434">Write apply report and patch receipts</text><rect fill="#FEFECE" height="33.9688" rx="12.5" ry="12.5" style="stroke: #A80036; stroke-width: 1.5;" width="236" x="871.5" y="607.7422"/><text fill="#000000" font-family="sans-serif" font-size="12" lengthAdjust="spacingAndGlyphs" textLength="216" x="881.5" y="628.8809">Append patch Decision ledger last</text><polygon fill="#FEFECE" points="1245,345.0625,1277,345.0625,1289,357.0625,1277,369.0625,1245,369.0625,1233,357.0625,1245,345.0625" style="stroke: #A80036; stroke-width: 1.5;"/><text fill="#000000" font-family="sans-serif" font-size="11" lengthAdjust="spacingAndGlyphs" textLength="32" x="1245" y="360.8706">reject</text><text fill="#000000" font-family="sans-serif" font-size="11" lengthAdjust="spacingAndGlyphs" textLength="53" x="1289" y="354.4683">postpone</text><rect fill="#FEFECE" height="33.9688" rx="12.5" ry="12.5" style="stroke: #A80036; stroke-width: 1.5;" width="248" x="1137" y="389.0625"/><text fill="#000000" font-family="sans-serif" font-size="12" lengthAdjust="spacingAndGlyphs" textLength="228" x="1147" y="410.2012">Resolve draft patch without applying</text><rect fill="#FEFECE" height="33.9688" rx="12.5" ry="12.5" style="stroke: #A80036; stroke-width: 1.5;" width="184" x="1169" y="458.0313"/><text fill="#000000" font-family="sans-serif" font-size="12" lengthAdjust="spacingAndGlyphs" textLength="164" x="1179" y="479.1699">Append rejection Decision</text><rect fill="#FEFECE" height="33.9688" rx="12.5" ry="12.5" style="stroke: #A80036; stroke-width: 1.5;" width="208" x="1405" y="467.4336"/><text fill="#000000" font-family="sans-serif" font-size="12" lengthAdjust="spacingAndGlyphs" textLength="188" x="1415" y="488.5723">Append non-terminal Decision</text><rect fill="#FEFECE" height="33.9688" rx="12.5" ry="12.5" style="stroke: #A80036; stroke-width: 1.5;" width="180" x="1419" y="536.4023"/><text fill="#000000" font-family="sans-serif" font-size="12" lengthAdjust="spacingAndGlyphs" textLength="160" x="1429" y="557.541">Keep draft patch pending</text><polygon fill="#FEFECE" points="826.75,713.6797,838.75,725.6797,826.75,737.6797,814.75,725.6797,826.75,713.6797" style="stroke: #A80036; stroke-width: 1.5;"/><polygon fill="#FEFECE" points="735.25,757.6797,918.25,757.6797,930.25,769.6797,918.25,781.6797,735.25,781.6797,723.25,769.6797,735.25,757.6797" style="stroke: #A80036; stroke-width: 1.5;"/><text fill="#000000" font-family="sans-serif" font-size="11" lengthAdjust="spacingAndGlyphs" textLength="183" x="735.25" y="773.4878">Resolved with trusted evidence?</text><text fill="#000000" font-family="sans-serif" font-size="11" lengthAdjust="spacingAndGlyphs" textLength="20" x="703.25" y="767.0854">yes</text><text fill="#000000" font-family="sans-serif" font-size="11" lengthAdjust="spacingAndGlyphs" textLength="14" x="930.25" y="767.0854">no</text><rect fill="#FEFECE" height="33.9688" rx="12.5" ry="12.5" style="stroke: #A80036; stroke-width: 1.5;" width="207" x="609.75" y="791.6797"/><text fill="#000000" font-family="sans-serif" font-size="12" lengthAdjust="spacingAndGlyphs" textLength="187" x="619.75" y="812.8184">Archive change or draft patch</text><rect fill="#FEFECE" height="33.9688" rx="12.5" ry="12.5" style="stroke: #A80036; stroke-width: 1.5;" width="172" x="854.25" y="791.6797"/><text fill="#000000" font-family="sans-serif" font-size="12" lengthAdjust="spacingAndGlyphs" textLength="152" x="864.25" y="812.8184">Remain visible for review</text><polygon fill="#FEFECE" points="826.75,831.6484,838.75,843.6484,826.75,855.6484,814.75,843.6484,826.75,831.6484" style="stroke: #A80036; stroke-width: 1.5;"/><ellipse cx="826.75" cy="886.6484" fill="#FFFFFF" rx="11" ry="11" style="stroke: #000000; stroke-width: 1.0;"/><ellipse cx="826.75" cy="886.6484" fill="#000000" rx="6" ry="6" style="stroke: #7F7F7F; stroke-width: 1.0;"/><line style="stroke: #A80036; stroke-width: 1.5;" x1="426" x2="426" y1="175.2188" y2="195.2188"/><polygon fill="#A80036" points="422,185.2188,426,195.2188,430,185.2188,426,189.2188" style="stroke: #A80036; stroke-width: 1.0;"/><line style="stroke: #A80036; stroke-width: 1.5;" x1="426" x2="426" y1="243.1563" y2="277.125"/><polygon fill="#A80036" points="422,267.125,426,277.125,430,267.125,426,271.125" style="stroke: #A80036; stroke-width: 1.0;"/><line style="stroke: #A80036; stroke-width: 1.5;" x1="158" x2="158" y1="449.8047" y2="484.8047"/><polygon fill="#A80036" points="154,474.8047,158,484.8047,162,474.8047,158,478.8047" style="stroke: #A80036; stroke-width: 1.0;"/><line style="stroke: #A80036; stroke-width: 1.5;" x1="158" x2="158" y1="518.7734" y2="553.7734"/><polygon fill="#A80036" points="154,543.7734,158,553.7734,162,543.7734,158,547.7734" style="stroke: #A80036; stroke-width: 1.0;"/><line style="stroke: #A80036; stroke-width: 1.5;" x1="158" x2="158" y1="587.7422" y2="621.7109"/><polygon fill="#A80036" points="154,611.7109,158,621.7109,162,611.7109,158,615.7109" style="stroke: #A80036; stroke-width: 1.0;"/><line style="stroke: #A80036; stroke-width: 1.5;" x1="457" x2="457" y1="437" y2="472"/><polygon fill="#A80036" points="453,462,457,472,461,462,457,466" style="stroke: #A80036; stroke-width: 1.0;"/><line style="stroke: #A80036; stroke-width: 1.5;" x1="715" x2="715" y1="515.3711" y2="550.3711"/><polygon fill="#A80036" points="711,540.3711,715,550.3711,719,540.3711,715,544.3711" style="stroke: #A80036; stroke-width: 1.0;"/><line style="stroke: #A80036; stroke-width: 1.5;" x1="158" x2="158" y1="383.0313" y2="415.8359"/><polygon fill="#A80036" points="154,405.8359,158,415.8359,162,405.8359,158,409.8359" style="stroke: #A80036; stroke-width: 1.0;"/><line style="stroke: #A80036; stroke-width: 1.5;" x1="158" x2="158" y1="655.6797" y2="689.6484"/><polygon fill="#A80036" points="154,679.6484,158,689.6484,162,679.6484,158,683.6484" style="stroke: #A80036; stroke-width: 1.0;"/><line style="stroke: #A80036; stroke-width: 1.5;" x1="457" x2="457" y1="383.0313" y2="403.0313"/><polygon fill="#A80036" points="453,393.0313,457,403.0313,461,393.0313,457,397.0313" style="stroke: #A80036; stroke-width: 1.0;"/><line style="stroke: #A80036; stroke-width: 1.5;" x1="457" x2="457" y1="505.9688" y2="689.6484"/><polygon fill="#A80036" points="453,679.6484,457,689.6484,461,679.6484,457,683.6484" style="stroke: #A80036; stroke-width: 1.0;"/><line style="stroke: #A80036; stroke-width: 1.5;" x1="223" x2="429" y1="371.0313" y2="371.0313"/><polygon fill="#A80036" points="419,367.0313,429,371.0313,419,375.0313,423,371.0313" style="stroke: #A80036; stroke-width: 1.0;"/><line style="stroke: #A80036; stroke-width: 1.5;" x1="426" x2="426" y1="325.0625" y2="334.0313"/><line style="stroke: #A80036; stroke-width: 1.5;" x1="426" x2="158" y1="334.0313" y2="334.0313"/><line style="stroke: #A80036; stroke-width: 1.5;" x1="158" x2="158" y1="334.0313" y2="359.0313"/><polygon fill="#A80036" points="154,349.0313,158,359.0313,162,349.0313,158,353.0313" style="stroke: #A80036; stroke-width: 1.0;"/><line style="stroke: #A80036; stroke-width: 1.5;" x1="485" x2="715" y1="371.0313" y2="371.0313"/><line style="stroke: #A80036; stroke-width: 1.5;" x1="715" x2="715" y1="371.0313" y2="481.4023"/><polygon fill="#A80036" points="711,471.4023,715,481.4023,719,471.4023,715,475.4023" style="stroke: #A80036; stroke-width: 1.0;"/><line style="stroke: #A80036; stroke-width: 1.5;" x1="715" x2="715" y1="584.3398" y2="689.6484"/><polygon fill="#A80036" points="711,679.6484,715,689.6484,719,679.6484,715,683.6484" style="stroke: #A80036; stroke-width: 1.0;"/><line style="stroke: #A80036; stroke-width: 1.5;" x1="158" x2="715" y1="689.6484" y2="689.6484"/><line style="stroke: #A80036; stroke-width: 1.5;" x1="1237.5" x2="1237.5" y1="175.2188" y2="195.2188"/><polygon fill="#A80036" points="1233.5,185.2188,1237.5,195.2188,1241.5,185.2188,1237.5,189.2188" style="stroke: #A80036; stroke-width: 1.0;"/><line style="stroke: #A80036; stroke-width: 1.5;" x1="1237.5" x2="1237.5" y1="229.1875" y2="263.1563"/><polygon fill="#A80036" points="1233.5,253.1563,1237.5,263.1563,1241.5,253.1563,1237.5,257.1563" style="stroke: #A80036; stroke-width: 1.0;"/><line style="stroke: #A80036; stroke-width: 1.5;" x1="989.5" x2="989.5" y1="435.8359" y2="470.8359"/><polygon fill="#A80036" points="985.5,460.8359,989.5,470.8359,993.5,460.8359,989.5,464.8359" style="stroke: #A80036; stroke-width: 1.0;"/><line style="stroke: #A80036; stroke-width: 1.5;" x1="989.5" x2="989.5" y1="504.8047" y2="539.8047"/><polygon fill="#A80036" points="985.5,529.8047,989.5,539.8047,993.5,529.8047,989.5,533.8047" style="stroke: #A80036; stroke-width: 1.0;"/><line style="stroke: #A80036; stroke-width: 1.5;" x1="989.5" x2="989.5" y1="573.7734" y2="607.7422"/><polygon fill="#A80036" points="985.5,597.7422,989.5,607.7422,993.5,597.7422,989.5,601.7422" style="stroke: #A80036; stroke-width: 1.0;"/><line style="stroke: #A80036; stroke-width: 1.5;" x1="1261" x2="1261" y1="423.0313" y2="458.0313"/><polygon fill="#A80036" points="1257,448.0313,1261,458.0313,1265,448.0313,1261,452.0313" style="stroke: #A80036; stroke-width: 1.0;"/><line style="stroke: #A80036; stroke-width: 1.5;" x1="1509" x2="1509" y1="501.4023" y2="536.4023"/><polygon fill="#A80036" points="1505,526.4023,1509,536.4023,1513,526.4023,1509,530.4023" style="stroke: #A80036; stroke-width: 1.0;"/><line style="stroke: #A80036; stroke-width: 1.5;" x1="989.5" x2="989.5" y1="369.0625" y2="401.8672"/><polygon fill="#A80036" points="985.5,391.8672,989.5,401.8672,993.5,391.8672,989.5,395.8672" style="stroke: #A80036; stroke-width: 1.0;"/><line style="stroke: #A80036; stroke-width: 1.5;" x1="989.5" x2="989.5" y1="641.7109" y2="675.6797"/><polygon fill="#A80036" points="985.5,665.6797,989.5,675.6797,993.5,665.6797,989.5,669.6797" style="stroke: #A80036; stroke-width: 1.0;"/><line style="stroke: #A80036; stroke-width: 1.5;" x1="1261" x2="1261" y1="369.0625" y2="389.0625"/><polygon fill="#A80036" points="1257,379.0625,1261,389.0625,1265,379.0625,1261,383.0625" style="stroke: #A80036; stroke-width: 1.0;"/><line style="stroke: #A80036; stroke-width: 1.5;" x1="1261" x2="1261" y1="492" y2="675.6797"/><polygon fill="#A80036" points="1257,665.6797,1261,675.6797,1265,665.6797,1261,669.6797" style="stroke: #A80036; stroke-width: 1.0;"/><line style="stroke: #A80036; stroke-width: 1.5;" x1="1046" x2="1233" y1="357.0625" y2="357.0625"/><polygon fill="#A80036" points="1223,353.0625,1233,357.0625,1223,361.0625,1227,357.0625" style="stroke: #A80036; stroke-width: 1.0;"/><line style="stroke: #A80036; stroke-width: 1.5;" x1="1237.5" x2="1237.5" y1="311.0938" y2="330.0625"/><line style="stroke: #A80036; stroke-width: 1.5;" x1="1237.5" x2="989.5" y1="330.0625" y2="330.0625"/><line style="stroke: #A80036; stroke-width: 1.5;" x1="989.5" x2="989.5" y1="330.0625" y2="345.0625"/><polygon fill="#A80036" points="985.5,335.0625,989.5,345.0625,993.5,335.0625,989.5,339.0625" style="stroke: #A80036; stroke-width: 1.0;"/><line style="stroke: #A80036; stroke-width: 1.5;" x1="1289" x2="1509" y1="357.0625" y2="357.0625"/><line style="stroke: #A80036; stroke-width: 1.5;" x1="1509" x2="1509" y1="357.0625" y2="467.4336"/><polygon fill="#A80036" points="1505,457.4336,1509,467.4336,1513,457.4336,1509,461.4336" style="stroke: #A80036; stroke-width: 1.0;"/><line style="stroke: #A80036; stroke-width: 1.5;" x1="1509" x2="1509" y1="570.3711" y2="675.6797"/><polygon fill="#A80036" points="1505,665.6797,1509,675.6797,1513,665.6797,1509,669.6797" style="stroke: #A80036; stroke-width: 1.0;"/><line style="stroke: #A80036; stroke-width: 1.5;" x1="989.5" x2="1509" y1="675.6797" y2="675.6797"/><line style="stroke: #A80036; stroke-width: 1.5;" x1="771.25" x2="426" y1="82.9531" y2="82.9531"/><line style="stroke: #A80036; stroke-width: 1.5;" x1="426" x2="426" y1="82.9531" y2="141.25"/><polygon fill="#A80036" points="422,131.25,426,141.25,430,131.25,426,135.25" style="stroke: #A80036; stroke-width: 1.0;"/><line style="stroke: #A80036; stroke-width: 1.5;" x1="882.25" x2="1237.5" y1="82.9531" y2="82.9531"/><line style="stroke: #A80036; stroke-width: 1.5;" x1="1237.5" x2="1237.5" y1="82.9531" y2="141.25"/><polygon fill="#A80036" points="1233.5,131.25,1237.5,141.25,1241.5,131.25,1237.5,135.25" style="stroke: #A80036; stroke-width: 1.0;"/><line style="stroke: #A80036; stroke-width: 1.5;" x1="426" x2="426" y1="689.6484" y2="725.6797"/><line style="stroke: #A80036; stroke-width: 1.5;" x1="426" x2="814.75" y1="725.6797" y2="725.6797"/><polygon fill="#A80036" points="804.75,721.6797,814.75,725.6797,804.75,729.6797,808.75,725.6797" style="stroke: #A80036; stroke-width: 1.0;"/><line style="stroke: #A80036; stroke-width: 1.5;" x1="1237.5" x2="1237.5" y1="675.6797" y2="725.6797"/><line style="stroke: #A80036; stroke-width: 1.5;" x1="1237.5" x2="838.75" y1="725.6797" y2="725.6797"/><polygon fill="#A80036" points="848.75,721.6797,838.75,725.6797,848.75,729.6797,844.75,725.6797" style="stroke: #A80036; stroke-width: 1.0;"/><line style="stroke: #A80036; stroke-width: 1.5;" x1="826.75" x2="826.75" y1="50.9531" y2="70.9531"/><polygon fill="#A80036" points="822.75,60.9531,826.75,70.9531,830.75,60.9531,826.75,64.9531" style="stroke: #A80036; stroke-width: 1.0;"/><line style="stroke: #A80036; stroke-width: 1.5;" x1="723.25" x2="713.25" y1="769.6797" y2="769.6797"/><line style="stroke: #A80036; stroke-width: 1.5;" x1="713.25" x2="713.25" y1="769.6797" y2="791.6797"/><polygon fill="#A80036" points="709.25,781.6797,713.25,791.6797,717.25,781.6797,713.25,785.6797" style="stroke: #A80036; stroke-width: 1.0;"/><line style="stroke: #A80036; stroke-width: 1.5;" x1="930.25" x2="940.25" y1="769.6797" y2="769.6797"/><line style="stroke: #A80036; stroke-width: 1.5;" x1="940.25" x2="940.25" y1="769.6797" y2="791.6797"/><polygon fill="#A80036" points="936.25,781.6797,940.25,791.6797,944.25,781.6797,940.25,785.6797" style="stroke: #A80036; stroke-width: 1.0;"/><line style="stroke: #A80036; stroke-width: 1.5;" x1="713.25" x2="713.25" y1="825.6484" y2="843.6484"/><line style="stroke: #A80036; stroke-width: 1.5;" x1="713.25" x2="814.75" y1="843.6484" y2="843.6484"/><polygon fill="#A80036" points="804.75,839.6484,814.75,843.6484,804.75,847.6484,808.75,843.6484" style="stroke: #A80036; stroke-width: 1.0;"/><line style="stroke: #A80036; stroke-width: 1.5;" x1="940.25" x2="940.25" y1="825.6484" y2="843.6484"/><line style="stroke: #A80036; stroke-width: 1.5;" x1="940.25" x2="838.75" y1="843.6484" y2="843.6484"/><polygon fill="#A80036" points="848.75,839.6484,838.75,843.6484,848.75,847.6484,844.75,843.6484" style="stroke: #A80036; stroke-width: 1.0;"/><line style="stroke: #A80036; stroke-width: 1.5;" x1="826.75" x2="826.75" y1="737.6797" y2="757.6797"/><polygon fill="#A80036" points="822.75,747.6797,826.75,757.6797,830.75,747.6797,826.75,751.6797" style="stroke: #A80036; stroke-width: 1.0;"/><line style="stroke: #A80036; stroke-width: 1.5;" x1="826.75" x2="826.75" y1="855.6484" y2="875.6484"/><polygon fill="#A80036" points="822.75,865.6484,826.75,875.6484,830.75,865.6484,826.75,869.6484" style="stroke: #A80036; stroke-width: 1.0;"/><!--MD5=[080e5c089878df216296a40f44439f49]
@startuml
title Shared：Contract change 与 draft patch 的独立生命周期
skinparam shadowing false
start
if (Change target?) then (stable contract)
  partition "Contract change" {
    :Inspect stable contract and evidence;
    :Propose creates proposal.md,
    tasks.md and contract-patch.yaml;
    :Human reviews exact current/proposed values,
    evidence, risk and write plan;
    if (Contract Decision?) then (accept)
      :Revalidate target/current value;
      :Apply stable spec;
      :Write apply receipt and registry evidence;
      :Append contract Decision ledger last;
    elseif (reject)
      :Resolve contract change without applying;
      :Append rejection Decision;
    else (postpone)
      :Append non-terminal Decision;
      :Keep contract change pending;
    endif
  }
else (draft text)
  partition "Draft patch" {
    :Submit revision patch bound to base artifact/hash;
    :Write patch submit receipt;
    :Human reviews revision ops,
    semantic delta and write plan;
    if (Patch Decision?) then (accept)
      :Revalidate base hash and operations;
      :Apply patch to a new revised draft;
      :Write apply report and patch receipts;
      :Append patch Decision ledger last;
    elseif (reject)
      :Resolve draft patch without applying;
      :Append rejection Decision;
    else (postpone)
      :Append non-terminal Decision;
      :Keep draft patch pending;
    endif
  }
endif
if (Resolved with trusted evidence?) then (yes)
  :Archive change or draft patch;
else (no)
  :Remain visible for review;
endif
stop
@enduml

PlantUML version 1.2020.02(Sun Mar 01 18:22:07 CST 2020)
(GPL source distribution)
Java Runtime: OpenJDK Runtime Environment
JVM: OpenJDK 64-Bit Server VM
Java Version: 21.0.11+10-1-24.04.2-Ubuntu
Operating System: Linux
Default Encoding: UTF-8
Language: en
Country: null
--></g></svg>