<?xml version="1.0" encoding="UTF-8" standalone="no"?><svg xmlns="http://www.w3.org/2000/svg" xmlns:xlink="http://www.w3.org/1999/xlink" contentScriptType="application/ecmascript" contentStyleType="text/css" height="965px" preserveAspectRatio="none" style="width:844px;height:965px;" version="1.1" viewBox="0 0 844 965" width="844px" zoomAndPan="magnify"><defs/><g><text fill="#000000" font-family="sans-serif" font-size="18" lengthAdjust="spacingAndGlyphs" textLength="469" x="188.5" y="26.708">Strict compatibility：Deep Research 外层 work graph</text><rect fill="#FFFFFF" height="287.5938" style="stroke: #000000; stroke-width: 2.0;" width="650.5" x="182.5" y="338.1797"/><rect fill="#FFFFFF" height="162.7969" style="stroke: #000000; stroke-width: 2.0;" width="820" x="13" y="639.7734"/><line style="stroke: #A80036; stroke-width: 1.0; stroke-dasharray: 5.0,5.0;" x1="42" x2="42" y1="117.25" y2="877.8359"/><line style="stroke: #A80036; stroke-width: 1.0; stroke-dasharray: 5.0,5.0;" x1="237.5" x2="237.5" y1="117.25" y2="877.8359"/><line style="stroke: #A80036; stroke-width: 1.0; stroke-dasharray: 5.0,5.0;" x1="477.5" x2="477.5" y1="117.25" y2="877.8359"/><line style="stroke: #A80036; stroke-width: 1.0; stroke-dasharray: 5.0,5.0;" x1="615.5" x2="615.5" y1="117.25" y2="877.8359"/><line style="stroke: #A80036; stroke-width: 1.0; stroke-dasharray: 5.0,5.0;" x1="781" x2="781" y1="117.25" y2="877.8359"/><text fill="#000000" font-family="sans-serif" font-size="14" lengthAdjust="spacingAndGlyphs" textLength="32" x="23" y="113.9482">User</text><ellipse cx="42" cy="47.9531" fill="#FEFECE" rx="8" ry="8" style="stroke: #A80036; stroke-width: 2.0;"/><path d="M42,55.9531 L42,82.9531 M29,63.9531 L55,63.9531 M42,82.9531 L29,97.9531 M42,82.9531 L55,97.9531 " fill="none" style="stroke: #A80036; stroke-width: 2.0;"/><text fill="#000000" font-family="sans-serif" font-size="14" lengthAdjust="spacingAndGlyphs" textLength="32" x="23" y="889.8311">User</text><ellipse cx="42" cy="903.1328" fill="#FEFECE" rx="8" ry="8" style="stroke: #A80036; stroke-width: 2.0;"/><path d="M42,911.1328 L42,938.1328 M29,919.1328 L55,919.1328 M42,938.1328 L29,953.1328 M42,938.1328 L55,953.1328 " fill="none" style="stroke: #A80036; stroke-width: 2.0;"/><rect fill="#FEFECE" height="30.2969" style="stroke: #A80036; stroke-width: 1.5;" width="91" x="192.5" y="85.9531"/><text fill="#000000" font-family="sans-serif" font-size="14" lengthAdjust="spacingAndGlyphs" textLength="77" x="199.5" y="105.9482">Host Agent</text><rect fill="#FEFECE" height="30.2969" style="stroke: #A80036; stroke-width: 1.5;" width="91" x="192.5" y="876.8359"/><text fill="#000000" font-family="sans-serif" font-size="14" lengthAdjust="spacingAndGlyphs" textLength="77" x="199.5" y="896.8311">Host Agent</text><rect fill="#FEFECE" height="30.2969" style="stroke: #A80036; stroke-width: 1.5;" width="139" x="408.5" y="85.9531"/><text fill="#000000" font-family="sans-serif" font-size="14" lengthAdjust="spacingAndGlyphs" textLength="125" x="415.5" y="105.9482">ResearchSpec CLI</text><rect fill="#FEFECE" height="30.2969" style="stroke: #A80036; stroke-width: 1.5;" width="139" x="408.5" y="876.8359"/><text fill="#000000" font-family="sans-serif" font-size="14" lengthAdjust="spacingAndGlyphs" textLength="125" x="415.5" y="896.8311">ResearchSpec CLI</text><rect fill="#FEFECE" height="46.5938" style="stroke: #A80036; stroke-width: 1.5;" width="116" x="557.5" y="69.6563"/><text fill="#000000" font-family="sans-serif" font-size="14" lengthAdjust="spacingAndGlyphs" textLength="102" x="564.5" y="89.6514">deep-research</text><text fill="#000000" font-family="sans-serif" font-size="14" lengthAdjust="spacingAndGlyphs" textLength="102" x="564.5" y="105.9482">13-agent team</text><rect fill="#FEFECE" height="46.5938" style="stroke: #A80036; stroke-width: 1.5;" width="116" x="557.5" y="876.8359"/><text fill="#000000" font-family="sans-serif" font-size="14" lengthAdjust="spacingAndGlyphs" textLength="102" x="564.5" y="896.8311">deep-research</text><text fill="#000000" font-family="sans-serif" font-size="14" lengthAdjust="spacingAndGlyphs" textLength="102" x="564.5" y="913.1279">13-agent team</text><text fill="#000000" font-family="sans-serif" font-size="14" lengthAdjust="spacingAndGlyphs" textLength="77" x="740" y="113.9482">Workspace</text><path d="M763.5,64.9531 C763.5,54.9531 781.5,54.9531 781.5,54.9531 C781.5,54.9531 799.5,54.9531 799.5,64.9531 L799.5,90.9531 C799.5,100.9531 781.5,100.9531 781.5,100.9531 C781.5,100.9531 763.5,100.9531 763.5,90.9531 L763.5,64.9531 " fill="#FEFECE" style="stroke: #000000; stroke-width: 1.5;"/><path d="M763.5,64.9531 C763.5,74.9531 781.5,74.9531 781.5,74.9531 C781.5,74.9531 799.5,74.9531 799.5,64.9531 " fill="none" style="stroke: #000000; stroke-width: 1.5;"/><text fill="#000000" font-family="sans-serif" font-size="14" lengthAdjust="spacingAndGlyphs" textLength="77" x="740" y="889.8311">Workspace</text><path d="M763.5,903.1328 C763.5,893.1328 781.5,893.1328 781.5,893.1328 C781.5,893.1328 799.5,893.1328 799.5,903.1328 L799.5,929.1328 C799.5,939.1328 781.5,939.1328 781.5,939.1328 C781.5,939.1328 763.5,939.1328 763.5,929.1328 L763.5,903.1328 " fill="#FEFECE" style="stroke: #000000; stroke-width: 1.5;"/><path d="M763.5,903.1328 C763.5,913.1328 781.5,913.1328 781.5,913.1328 C781.5,913.1328 799.5,913.1328 799.5,903.1328 " fill="none" style="stroke: #000000; stroke-width: 1.5;"/><polygon fill="#A80036" points="466,144.3828,476,148.3828,466,152.3828,470,148.3828" style="stroke: #A80036; stroke-width: 1.0;"/><line style="stroke: #A80036; stroke-width: 1.0;" x1="238" x2="472" y1="148.3828" y2="148.3828"/><text fill="#000000" font-family="sans-serif" font-size="13" lengthAdjust="spacingAndGlyphs" textLength="171" x="245" y="143.3169">status + route instructions</text><polygon fill="#A80036" points="249,173.5156,239,177.5156,249,181.5156,245,177.5156" style="stroke: #A80036; stroke-width: 1.0;"/><line style="stroke: #A80036; stroke-width: 1.0; stroke-dasharray: 2.0,2.0;" x1="243" x2="477" y1="177.5156" y2="177.5156"/><text fill="#000000" font-family="sans-serif" font-size="13" lengthAdjust="spacingAndGlyphs" textLength="192" x="255" y="172.4497">one of 8 routes, prerequisites,</text><polygon fill="#A80036" points="249,202.6484,239,206.6484,249,210.6484,245,206.6484" style="stroke: #A80036; stroke-width: 1.0;"/><line style="stroke: #A80036; stroke-width: 1.0; stroke-dasharray: 2.0,2.0;" x1="243" x2="477" y1="206.6484" y2="206.6484"/><text fill="#000000" font-family="sans-serif" font-size="13" lengthAdjust="spacingAndGlyphs" textLength="206" x="255" y="201.5825">artifact DAG, Gate, risk and cost</text><polygon fill="#A80036" points="53,231.7813,43,235.7813,53,239.7813,49,235.7813" style="stroke: #A80036; stroke-width: 1.0;"/><line style="stroke: #A80036; stroke-width: 1.0;" x1="47" x2="237" y1="235.7813" y2="235.7813"/><text fill="#000000" font-family="sans-serif" font-size="13" lengthAdjust="spacingAndGlyphs" textLength="99" x="59" y="230.7153">route summary</text><polygon fill="#A80036" points="226,260.9141,236,264.9141,226,268.9141,230,264.9141" style="stroke: #A80036; stroke-width: 1.0;"/><line style="stroke: #A80036; stroke-width: 1.0; stroke-dasharray: 2.0,2.0;" x1="42" x2="232" y1="264.9141" y2="264.9141"/><text fill="#000000" font-family="sans-serif" font-size="13" lengthAdjust="spacingAndGlyphs" textLength="125" x="49" y="259.8481">confirm exact route</text><polygon fill="#A80036" points="466,290.0469,476,294.0469,466,298.0469,470,294.0469" style="stroke: #A80036; stroke-width: 1.0;"/><line style="stroke: #A80036; stroke-width: 1.0;" x1="238" x2="472" y1="294.0469" y2="294.0469"/><text fill="#000000" font-family="sans-serif" font-size="13" lengthAdjust="spacingAndGlyphs" textLength="32" x="245" y="288.981">Start</text><polygon fill="#A80036" points="769.5,319.1797,779.5,323.1797,769.5,327.1797,773.5,323.1797" style="stroke: #A80036; stroke-width: 1.0;"/><line style="stroke: #A80036; stroke-width: 1.0;" x1="478" x2="775.5" y1="323.1797" y2="323.1797"/><text fill="#000000" font-family="sans-serif" font-size="13" lengthAdjust="spacingAndGlyphs" textLength="165" x="485" y="318.1138">receipt then subflow state</text><path d="M182.5,338.1797 L259.5,338.1797 L259.5,345.1797 L249.5,355.1797 L182.5,355.1797 L182.5,338.1797 " fill="#EEEEEE" style="stroke: #000000; stroke-width: 1.0;"/><rect fill="none" height="287.5938" style="stroke: #000000; stroke-width: 2.0;" width="650.5" x="182.5" y="338.1797"/><text fill="#000000" font-family="sans-serif" font-size="13" font-weight="bold" lengthAdjust="spacingAndGlyphs" textLength="32" x="197.5" y="351.2466">loop</text><text fill="#000000" font-family="sans-serif" font-size="11" font-weight="bold" lengthAdjust="spacingAndGlyphs" textLength="144" x="274.5" y="350.3901">[artifact work frontier]</text><polygon fill="#A80036" points="466,372.4453,476,376.4453,466,380.4453,470,376.4453" style="stroke: #A80036; stroke-width: 1.0;"/><line style="stroke: #A80036; stroke-width: 1.0;" x1="238" x2="472" y1="376.4453" y2="376.4453"/><text fill="#000000" font-family="sans-serif" font-size="13" lengthAdjust="spacingAndGlyphs" textLength="216" x="245" y="371.3794">instructions work:&lt;scoped-node&gt;</text><polygon fill="#A80036" points="249,401.5781,239,405.5781,249,409.5781,245,405.5781" style="stroke: #A80036; stroke-width: 1.0;"/><line style="stroke: #A80036; stroke-width: 1.0; stroke-dasharray: 2.0,2.0;" x1="243" x2="477" y1="405.5781" y2="405.5781"/><text fill="#000000" font-family="sans-serif" font-size="13" lengthAdjust="spacingAndGlyphs" textLength="201" x="255" y="400.5122">declared input/output boundary</text><polygon fill="#A80036" points="603.5,430.7109,613.5,434.7109,603.5,438.7109,607.5,434.7109" style="stroke: #A80036; stroke-width: 1.0;"/><line style="stroke: #A80036; stroke-width: 1.0;" x1="238" x2="609.5" y1="434.7109" y2="434.7109"/><text fill="#000000" font-family="sans-serif" font-size="13" lengthAdjust="spacingAndGlyphs" textLength="234" x="245" y="429.645">invoke selected route for this artifact</text><path d="M446,447.7109 L446,532.7109 L784,532.7109 L784,457.7109 L774,447.7109 L446,447.7109 " fill="#FBFB77" style="stroke: #A80036; stroke-width: 1.0;"/><path d="M774,447.7109 L774,457.7109 L784,457.7109 L774,447.7109 " fill="#FBFB77" style="stroke: #A80036; stroke-width: 1.0;"/><text fill="#000000" font-family="sans-serif" font-size="13" lengthAdjust="spacingAndGlyphs" textLength="221" x="452" y="464.7778">Semantic procedure as applicable:</text><text fill="#000000" font-family="sans-serif" font-size="13" lengthAdjust="spacingAndGlyphs" textLength="229" x="452" y="479.9106">scoping -&gt; investigation -&gt; analysis</text><text fill="#000000" font-family="sans-serif" font-size="13" lengthAdjust="spacingAndGlyphs" textLength="235" x="452" y="495.0435">-&gt; composition -&gt; review -&gt; revision</text><text fill="#000000" font-family="sans-serif" font-size="13" lengthAdjust="spacingAndGlyphs" textLength="317" x="452" y="510.1763">Systematic routes add risk-of-bias/meta-analysis;</text><text fill="#000000" font-family="sans-serif" font-size="13" lengthAdjust="spacingAndGlyphs" textLength="307" x="452" y="525.3091">Socratic and monitoring roles are route-specific.</text><polygon fill="#A80036" points="769.5,555.5078,779.5,559.5078,769.5,563.5078,773.5,559.5078" style="stroke: #A80036; stroke-width: 1.0;"/><line style="stroke: #A80036; stroke-width: 1.0;" x1="615.5" x2="775.5" y1="559.5078" y2="559.5078"/><text fill="#000000" font-family="sans-serif" font-size="13" lengthAdjust="spacingAndGlyphs" textLength="142" x="622.5" y="554.4419">candidate artifact only</text><polygon fill="#A80036" points="466,584.6406,476,588.6406,466,592.6406,470,588.6406" style="stroke: #A80036; stroke-width: 1.0;"/><line style="stroke: #A80036; stroke-width: 1.0;" x1="238" x2="472" y1="588.6406" y2="588.6406"/><text fill="#000000" font-family="sans-serif" font-size="13" lengthAdjust="spacingAndGlyphs" textLength="126" x="245" y="583.5747">hash-bound Submit</text><polygon fill="#A80036" points="769.5,613.7734,779.5,617.7734,769.5,621.7734,773.5,617.7734" style="stroke: #A80036; stroke-width: 1.0;"/><line style="stroke: #A80036; stroke-width: 1.0;" x1="478" x2="775.5" y1="617.7734" y2="617.7734"/><text fill="#000000" font-family="sans-serif" font-size="13" lengthAdjust="spacingAndGlyphs" textLength="159" x="485" y="612.7075">submit receipt + registry</text><path d="M13,639.7734 L83,639.7734 L83,646.7734 L73,656.7734 L13,656.7734 L13,639.7734 " fill="#EEEEEE" style="stroke: #000000; stroke-width: 1.0;"/><rect fill="none" height="162.7969" style="stroke: #000000; stroke-width: 2.0;" width="820" x="13" y="639.7734"/><text fill="#000000" font-family="sans-serif" font-size="13" font-weight="bold" lengthAdjust="spacingAndGlyphs" textLength="25" x="28" y="652.8403">opt</text><text fill="#000000" font-family="sans-serif" font-size="11" font-weight="bold" lengthAdjust="spacingAndGlyphs" textLength="136" x="98" y="651.9839">[required route Gate]</text><polygon fill="#A80036" points="466,674.0391,476,678.0391,466,682.0391,470,678.0391" style="stroke: #A80036; stroke-width: 1.0;"/><line style="stroke: #A80036; stroke-width: 1.0;" x1="238" x2="472" y1="678.0391" y2="678.0391"/><text fill="#000000" font-family="sans-serif" font-size="13" lengthAdjust="spacingAndGlyphs" textLength="107" x="245" y="672.9731">gate instructions</text><polygon fill="#A80036" points="53,703.1719,43,707.1719,53,711.1719,49,707.1719" style="stroke: #A80036; stroke-width: 1.0;"/><line style="stroke: #A80036; stroke-width: 1.0;" x1="47" x2="237" y1="707.1719" y2="707.1719"/><text fill="#000000" font-family="sans-serif" font-size="13" lengthAdjust="spacingAndGlyphs" textLength="172" x="59" y="702.106">Verify verdict and evidence</text><polygon fill="#A80036" points="226,732.3047,236,736.3047,226,740.3047,230,736.3047" style="stroke: #A80036; stroke-width: 1.0;"/><line style="stroke: #A80036; stroke-width: 1.0; stroke-dasharray: 2.0,2.0;" x1="42" x2="232" y1="736.3047" y2="736.3047"/><text fill="#000000" font-family="sans-serif" font-size="13" lengthAdjust="spacingAndGlyphs" textLength="128" x="49" y="731.2388">explicit confirmation</text><polygon fill="#A80036" points="466,761.4375,476,765.4375,466,769.4375,470,765.4375" style="stroke: #A80036; stroke-width: 1.0;"/><line style="stroke: #A80036; stroke-width: 1.0;" x1="238" x2="472" y1="765.4375" y2="765.4375"/><text fill="#000000" font-family="sans-serif" font-size="13" lengthAdjust="spacingAndGlyphs" textLength="124" x="245" y="760.3716">submit formal Gate</text><polygon fill="#A80036" points="769.5,790.5703,779.5,794.5703,769.5,798.5703,773.5,794.5703" style="stroke: #A80036; stroke-width: 1.0;"/><line style="stroke: #A80036; stroke-width: 1.0;" x1="478" x2="775.5" y1="794.5703" y2="794.5703"/><text fill="#000000" font-family="sans-serif" font-size="13" lengthAdjust="spacingAndGlyphs" textLength="138" x="485" y="789.5044">Gate receipt + ledger</text><polygon fill="#A80036" points="466,826.7031,476,830.7031,466,834.7031,470,830.7031" style="stroke: #A80036; stroke-width: 1.0;"/><line style="stroke: #A80036; stroke-width: 1.0;" x1="238" x2="472" y1="830.7031" y2="830.7031"/><text fill="#000000" font-family="sans-serif" font-size="13" lengthAdjust="spacingAndGlyphs" textLength="183" x="245" y="825.6372">Advance complete transition</text><polygon fill="#A80036" points="769.5,855.8359,779.5,859.8359,769.5,863.8359,773.5,859.8359" style="stroke: #A80036; stroke-width: 1.0;"/><line style="stroke: #A80036; stroke-width: 1.0;" x1="478" x2="775.5" y1="859.8359" y2="859.8359"/><text fill="#000000" font-family="sans-serif" font-size="13" lengthAdjust="spacingAndGlyphs" textLength="160" x="485" y="854.77">transition receipt + state</text><!--MD5=[80e8f7c54bc00d758e1b8f48c26583f2]
@startuml
title Strict compatibility：Deep Research 外层 work graph
skinparam shadowing false
actor User
participant "Host Agent" as Agent
participant "ResearchSpec CLI" as CLI
participant "deep-research\n13-agent team" as ARSU
database "Workspace" as Files

Agent -> CLI : status + route instructions
CLI - -> Agent : one of 8 routes, prerequisites,
CLI - -> Agent : artifact DAG, Gate, risk and cost
Agent -> User : route summary
User - -> Agent : confirm exact route
Agent -> CLI : Start
CLI -> Files : receipt then subflow state

loop artifact work frontier
  Agent -> CLI : instructions work:<scoped-node>
  CLI - -> Agent : declared input/output boundary
  Agent -> ARSU : invoke selected route for this artifact
  note over ARSU
    Semantic procedure as applicable:
    scoping -> investigation -> analysis
    -> composition -> review -> revision
    Systematic routes add risk-of-bias/meta-analysis;
    Socratic and monitoring roles are route-specific.
  end note
  ARSU -> Files : candidate artifact only
  Agent -> CLI : hash-bound Submit
  CLI -> Files : submit receipt + registry
end

opt required route Gate
  Agent -> CLI : gate instructions
  Agent -> User : Verify verdict and evidence
  User - -> Agent : explicit confirmation
  Agent -> CLI : submit formal Gate
  CLI -> Files : Gate receipt + ledger
end
Agent -> CLI : Advance complete transition
CLI -> Files : transition receipt + state
@enduml

PlantUML version 1.2020.02(Sun Mar 01 18:22:07 CST 2020)
(GPL source distribution)
Java Runtime: OpenJDK Runtime Environment
JVM: OpenJDK 64-Bit Server VM
Java Version: 21.0.11+10-1-24.04.2-Ubuntu
Operating System: Linux
Default Encoding: UTF-8
Language: en
Country: null
--></g></svg>