<?xml version="1.0" encoding="UTF-8" standalone="no"?>
<svg xmlns="http://www.w3.org/2000/svg" xmlns:xlink="http://www.w3.org/1999/xlink" contentScriptType="application/ecmascript" contentStyleType="text/css" height="1250px" preserveAspectRatio="none" style="width:1083px;height:1250px;" version="1.1" viewBox="0 0 1083 1250" width="1083px" zoomAndPan="magnify">
<defs/>
<g>
<text fill="#000000" font-family="sans-serif" font-size="18" lengthAdjust="spacingAndGlyphs" textLength="489" x="298.25" y="26.708">统一运行协议：Human / Agent / ARSU / CLI / Workspace</text>
<rect fill="#FFFFFF" height="221.0625" style="stroke: #000000; stroke-width: 2.0;" width="951.5" x="121" y="425.5781"/>
<rect fill="#FFFFFF" height="162.7969" style="stroke: #000000; stroke-width: 2.0;" width="1059.5" x="13" y="660.6406"/>
<rect fill="#FFFFFF" height="162.7969" style="stroke: #000000; stroke-width: 2.0;" width="1059.5" x="13" y="837.4375"/>
<line style="stroke: #A80036; stroke-width: 1.0; stroke-dasharray: 5.0,5.0;" x1="50" x2="50" y1="117.25" y2="1162.8984"/>
<line style="stroke: #A80036; stroke-width: 1.0; stroke-dasharray: 5.0,5.0;" x1="212" x2="212" y1="117.25" y2="1162.8984"/>
<line style="stroke: #A80036; stroke-width: 1.0; stroke-dasharray: 5.0,5.0;" x1="386" x2="386" y1="117.25" y2="1162.8984"/>
<line style="stroke: #A80036; stroke-width: 1.0; stroke-dasharray: 5.0,5.0;" x1="512" x2="512" y1="117.25" y2="1162.8984"/>
<line style="stroke: #A80036; stroke-width: 1.0; stroke-dasharray: 5.0,5.0;" x1="751" x2="751" y1="117.25" y2="1162.8984"/>
<line style="stroke: #A80036; stroke-width: 1.0; stroke-dasharray: 5.0,5.0;" x1="1005.5" x2="1005.5" y1="117.25" y2="1162.8984"/>
<text fill="#000000" font-family="sans-serif" font-size="14" lengthAdjust="spacingAndGlyphs" textLength="49" x="23" y="113.9482">Human</text>
<ellipse cx="50.5" cy="47.9531" fill="#FEFECE" rx="8" ry="8" style="stroke: #A80036; stroke-width: 2.0;"/>
<path d="M50.5,55.9531 L50.5,82.9531 M37.5,63.9531 L63.5,63.9531 M50.5,82.9531 L37.5,97.9531 M50.5,82.9531 L63.5,97.9531 " fill="none" style="stroke: #A80036; stroke-width: 2.0;"/>
<text fill="#000000" font-family="sans-serif" font-size="14" lengthAdjust="spacingAndGlyphs" textLength="49" x="23" y="1174.8936">Human</text>
<ellipse cx="50.5" cy="1188.1953" fill="#FEFECE" rx="8" ry="8" style="stroke: #A80036; stroke-width: 2.0;"/>
<path d="M50.5,1196.1953 L50.5,1223.1953 M37.5,1204.1953 L63.5,1204.1953 M50.5,1223.1953 L37.5,1238.1953 M50.5,1223.1953 L63.5,1238.1953 " fill="none" style="stroke: #A80036; stroke-width: 2.0;"/>
<rect fill="#FEFECE" height="30.2969" style="stroke: #A80036; stroke-width: 1.5;" width="163" x="131" y="85.9531"/>
<text fill="#000000" font-family="sans-serif" font-size="14" lengthAdjust="spacingAndGlyphs" textLength="149" x="138" y="105.9482">Host Agent / Navigate</text>
<rect fill="#FEFECE" height="30.2969" style="stroke: #A80036; stroke-width: 1.5;" width="163" x="131" y="1161.8984"/>
<text fill="#000000" font-family="sans-serif" font-size="14" lengthAdjust="spacingAndGlyphs" textLength="149" x="138" y="1181.8936">Host Agent / Navigate</text>
<rect fill="#FEFECE" height="30.2969" style="stroke: #A80036; stroke-width: 1.5;" width="119" x="327" y="85.9531"/>
<text fill="#000000" font-family="sans-serif" font-size="14" lengthAdjust="spacingAndGlyphs" textLength="105" x="334" y="105.9482">ARSU producer</text>
<rect fill="#FEFECE" height="30.2969" style="stroke: #A80036; stroke-width: 1.5;" width="119" x="327" y="1161.8984"/>
<text fill="#000000" font-family="sans-serif" font-size="14" lengthAdjust="spacingAndGlyphs" textLength="105" x="334" y="1181.8936">ARSU producer</text>
<rect fill="#FEFECE" height="30.2969" style="stroke: #A80036; stroke-width: 1.5;" width="113" x="456" y="85.9531"/>
<text fill="#000000" font-family="sans-serif" font-size="14" lengthAdjust="spacingAndGlyphs" textLength="99" x="463" y="105.9482">Verify / Decide</text>
<rect fill="#FEFECE" height="30.2969" style="stroke: #A80036; stroke-width: 1.5;" width="113" x="456" y="1161.8984"/>
<text fill="#000000" font-family="sans-serif" font-size="14" lengthAdjust="spacingAndGlyphs" textLength="99" x="463" y="1181.8936">Verify / Decide</text>
<rect fill="#FEFECE" height="30.2969" style="stroke: #A80036; stroke-width: 1.5;" width="139" x="682" y="85.9531"/>
<text fill="#000000" font-family="sans-serif" font-size="14" lengthAdjust="spacingAndGlyphs" textLength="125" x="689" y="105.9482">ResearchSpec CLI</text>
<rect fill="#FEFECE" height="30.2969" style="stroke: #A80036; stroke-width: 1.5;" width="139" x="682" y="1161.8984"/>
<text fill="#000000" font-family="sans-serif" font-size="14" lengthAdjust="spacingAndGlyphs" textLength="125" x="689" y="1181.8936">ResearchSpec CLI</text>
<text fill="#000000" font-family="sans-serif" font-size="14" lengthAdjust="spacingAndGlyphs" textLength="108" x="948.5" y="113.9482">Workspace files</text>
<path d="M987.5,64.9531 C987.5,54.9531 1005.5,54.9531 1005.5,54.9531 C1005.5,54.9531 1023.5,54.9531 1023.5,64.9531 L1023.5,90.9531 C1023.5,100.9531 1005.5,100.9531 1005.5,100.9531 C1005.5,100.9531 987.5,100.9531 987.5,90.9531 L987.5,64.9531 " fill="#FEFECE" style="stroke: #000000; stroke-width: 1.5;"/>
<path d="M987.5,64.9531 C987.5,74.9531 1005.5,74.9531 1005.5,74.9531 C1005.5,74.9531 1023.5,74.9531 1023.5,64.9531 " fill="none" style="stroke: #000000; stroke-width: 1.5;"/>
<text fill="#000000" font-family="sans-serif" font-size="14" lengthAdjust="spacingAndGlyphs" textLength="108" x="948.5" y="1174.8936">Workspace files</text>
<path d="M987.5,1188.1953 C987.5,1178.1953 1005.5,1178.1953 1005.5,1178.1953 C1005.5,1178.1953 1023.5,1178.1953 1023.5,1188.1953 L1023.5,1214.1953 C1023.5,1224.1953 1005.5,1224.1953 1005.5,1224.1953 C1005.5,1224.1953 987.5,1224.1953 987.5,1214.1953 L987.5,1188.1953 " fill="#FEFECE" style="stroke: #000000; stroke-width: 1.5;"/>
<path d="M987.5,1188.1953 C987.5,1198.1953 1005.5,1198.1953 1005.5,1198.1953 C1005.5,1198.1953 1023.5,1198.1953 1023.5,1188.1953 " fill="none" style="stroke: #000000; stroke-width: 1.5;"/>
<polygon fill="#A80036" points="739.5,144.3828,749.5,148.3828,739.5,152.3828,743.5,148.3828" style="stroke: #A80036; stroke-width: 1.0;"/>
<line style="stroke: #A80036; stroke-width: 1.0;" x1="212.5" x2="745.5" y1="148.3828" y2="148.3828"/>
<text fill="#000000" font-family="sans-serif" font-size="13" lengthAdjust="spacingAndGlyphs" textLength="80" x="219.5" y="143.3169">status --json</text>
<polygon fill="#A80036" points="993.5,173.5156,1003.5,177.5156,993.5,181.5156,997.5,177.5156" style="stroke: #A80036; stroke-width: 1.0;"/>
<line style="stroke: #A80036; stroke-width: 1.0;" x1="751.5" x2="999.5" y1="177.5156" y2="177.5156"/>
<text fill="#000000" font-family="sans-serif" font-size="13" lengthAdjust="spacingAndGlyphs" textLength="90" x="758.5" y="172.4497">load snapshot</text>
<polygon fill="#A80036" points="762.5,202.6484,752.5,206.6484,762.5,210.6484,758.5,206.6484" style="stroke: #A80036; stroke-width: 1.0;"/>
<line style="stroke: #A80036; stroke-width: 1.0; stroke-dasharray: 2.0,2.0;" x1="756.5" x2="1004.5" y1="206.6484" y2="206.6484"/>
<text fill="#000000" font-family="sans-serif" font-size="13" lengthAdjust="spacingAndGlyphs" textLength="167" x="768.5" y="201.5825">profile + state + evidence</text>
<polygon fill="#A80036" points="223.5,231.7813,213.5,235.7813,223.5,239.7813,219.5,235.7813" style="stroke: #A80036; stroke-width: 1.0;"/>
<line style="stroke: #A80036; stroke-width: 1.0; stroke-dasharray: 2.0,2.0;" x1="217.5" x2="750.5" y1="235.7813" y2="235.7813"/>
<text fill="#000000" font-family="sans-serif" font-size="13" lengthAdjust="spacingAndGlyphs" textLength="110" x="229.5" y="230.7153">canonical frontier</text>
<polygon fill="#A80036" points="739.5,260.9141,749.5,264.9141,739.5,268.9141,743.5,264.9141" style="stroke: #A80036; stroke-width: 1.0;"/>
<line style="stroke: #A80036; stroke-width: 1.0;" x1="212.5" x2="745.5" y1="264.9141" y2="264.9141"/>
<text fill="#000000" font-family="sans-serif" font-size="13" lengthAdjust="spacingAndGlyphs" textLength="209" x="219.5" y="259.8481">instructions subflow:&lt;template&gt;</text>
<polygon fill="#A80036" points="223.5,290.0469,213.5,294.0469,223.5,298.0469,219.5,294.0469" style="stroke: #A80036; stroke-width: 1.0;"/>
<line style="stroke: #A80036; stroke-width: 1.0; stroke-dasharray: 2.0,2.0;" x1="217.5" x2="750.5" y1="294.0469" y2="294.0469"/>
<text fill="#000000" font-family="sans-serif" font-size="13" lengthAdjust="spacingAndGlyphs" textLength="251" x="229.5" y="288.981">route, graph, prerequisites, cost, Gates</text>
<polygon fill="#A80036" points="61.5,319.1797,51.5,323.1797,61.5,327.1797,57.5,323.1797" style="stroke: #A80036; stroke-width: 1.0;"/>
<line style="stroke: #A80036; stroke-width: 1.0;" x1="55.5" x2="211.5" y1="323.1797" y2="323.1797"/>
<text fill="#000000" font-family="sans-serif" font-size="13" lengthAdjust="spacingAndGlyphs" textLength="138" x="67.5" y="318.1138">exact route summary</text>
<polygon fill="#A80036" points="200.5,348.3125,210.5,352.3125,200.5,356.3125,204.5,352.3125" style="stroke: #A80036; stroke-width: 1.0;"/>
<line style="stroke: #A80036; stroke-width: 1.0; stroke-dasharray: 2.0,2.0;" x1="50.5" x2="206.5" y1="352.3125" y2="352.3125"/>
<text fill="#000000" font-family="sans-serif" font-size="13" lengthAdjust="spacingAndGlyphs" textLength="86" x="57.5" y="347.2466">confirm route</text>
<polygon fill="#A80036" points="739.5,377.4453,749.5,381.4453,739.5,385.4453,743.5,381.4453" style="stroke: #A80036; stroke-width: 1.0;"/>
<line style="stroke: #A80036; stroke-width: 1.0;" x1="212.5" x2="745.5" y1="381.4453" y2="381.4453"/>
<text fill="#000000" font-family="sans-serif" font-size="13" lengthAdjust="spacingAndGlyphs" textLength="276" x="219.5" y="376.3794">Start dry-run then expected-plan execution</text>
<polygon fill="#A80036" points="993.5,406.5781,1003.5,410.5781,993.5,414.5781,997.5,410.5781" style="stroke: #A80036; stroke-width: 1.0;"/>
<line style="stroke: #A80036; stroke-width: 1.0;" x1="751.5" x2="999.5" y1="410.5781" y2="410.5781"/>
<text fill="#000000" font-family="sans-serif" font-size="13" lengthAdjust="spacingAndGlyphs" textLength="187" x="758.5" y="405.5122">start receipt, then state.yaml</text>
<path d="M121,425.5781 L198,425.5781 L198,432.5781 L188,442.5781 L121,442.5781 L121,425.5781 " fill="#EEEEEE" style="stroke: #000000; stroke-width: 1.0;"/>
<rect fill="none" height="221.0625" style="stroke: #000000; stroke-width: 2.0;" width="951.5" x="121" y="425.5781"/>
<text fill="#000000" font-family="sans-serif" font-size="13" font-weight="bold" lengthAdjust="spacingAndGlyphs" textLength="32" x="136" y="438.645">loop</text>
<text fill="#000000" font-family="sans-serif" font-size="11" font-weight="bold" lengthAdjust="spacingAndGlyphs" textLength="172" x="213" y="437.7886">[each ready work selector]</text>
<polygon fill="#A80036" points="739.5,459.8438,749.5,463.8438,739.5,467.8438,743.5,463.8438" style="stroke: #A80036; stroke-width: 1.0;"/>
<line style="stroke: #A80036; stroke-width: 1.0;" x1="212.5" x2="745.5" y1="463.8438" y2="463.8438"/>
<text fill="#000000" font-family="sans-serif" font-size="13" lengthAdjust="spacingAndGlyphs" textLength="245" x="219.5" y="458.7778">instructions work:&lt;instance&gt;/&lt;node&gt;</text>
<polygon fill="#A80036" points="223.5,488.9766,213.5,492.9766,223.5,496.9766,219.5,492.9766" style="stroke: #A80036; stroke-width: 1.0;"/>
<line style="stroke: #A80036; stroke-width: 1.0; stroke-dasharray: 2.0,2.0;" x1="217.5" x2="750.5" y1="492.9766" y2="492.9766"/>
<text fill="#000000" font-family="sans-serif" font-size="13" lengthAdjust="spacingAndGlyphs" textLength="256" x="229.5" y="487.9106">producer, inputs, output path, validation</text>
<polygon fill="#A80036" points="374.5,518.1094,384.5,522.1094,374.5,526.1094,378.5,522.1094" style="stroke: #A80036; stroke-width: 1.0;"/>
<line style="stroke: #A80036; stroke-width: 1.0;" x1="212.5" x2="380.5" y1="522.1094" y2="522.1094"/>
<text fill="#000000" font-family="sans-serif" font-size="13" lengthAdjust="spacingAndGlyphs" textLength="150" x="219.5" y="517.0435">bounded semantic task</text>
<polygon fill="#A80036" points="993.5,547.2422,1003.5,551.2422,993.5,555.2422,997.5,551.2422" style="stroke: #A80036; stroke-width: 1.0;"/>
<line style="stroke: #A80036; stroke-width: 1.0;" x1="386.5" x2="999.5" y1="551.2422" y2="551.2422"/>
<text fill="#000000" font-family="sans-serif" font-size="13" lengthAdjust="spacingAndGlyphs" textLength="127" x="393.5" y="546.1763">write candidate only</text>
<polygon fill="#A80036" points="739.5,576.375,749.5,580.375,739.5,584.375,743.5,580.375" style="stroke: #A80036; stroke-width: 1.0;"/>
<line style="stroke: #A80036; stroke-width: 1.0;" x1="212.5" x2="745.5" y1="580.375" y2="580.375"/>
<text fill="#000000" font-family="sans-serif" font-size="13" lengthAdjust="spacingAndGlyphs" textLength="294" x="219.5" y="575.3091">Submit dry-run then expected-hash execution</text>
<polygon fill="#A80036" points="993.5,605.5078,1003.5,609.5078,993.5,613.5078,997.5,609.5078" style="stroke: #A80036; stroke-width: 1.0;"/>
<line style="stroke: #A80036; stroke-width: 1.0;" x1="751.5" x2="999.5" y1="609.5078" y2="609.5078"/>
<text fill="#000000" font-family="sans-serif" font-size="13" lengthAdjust="spacingAndGlyphs" textLength="230" x="758.5" y="604.4419">submit receipt, then artifact registry</text>
<polygon fill="#A80036" points="739.5,634.6406,749.5,638.6406,739.5,642.6406,743.5,638.6406" style="stroke: #A80036; stroke-width: 1.0;"/>
<line style="stroke: #A80036; stroke-width: 1.0;" x1="212.5" x2="745.5" y1="638.6406" y2="638.6406"/>
<text fill="#000000" font-family="sans-serif" font-size="13" lengthAdjust="spacingAndGlyphs" textLength="80" x="219.5" y="633.5747">status --json</text>
<path d="M13,660.6406 L83,660.6406 L83,667.6406 L73,677.6406 L13,677.6406 L13,660.6406 " fill="#EEEEEE" style="stroke: #000000; stroke-width: 1.0;"/>
<rect fill="none" height="162.7969" style="stroke: #000000; stroke-width: 2.0;" width="1059.5" x="13" y="660.6406"/>
<text fill="#000000" font-family="sans-serif" font-size="13" font-weight="bold" lengthAdjust="spacingAndGlyphs" textLength="25" x="28" y="673.7075">opt</text>
<text fill="#000000" font-family="sans-serif" font-size="11" font-weight="bold" lengthAdjust="spacingAndGlyphs" textLength="85" x="98" y="672.8511">[formal Gate]</text>
<polygon fill="#A80036" points="500.5,694.9063,510.5,698.9063,500.5,702.9063,504.5,698.9063" style="stroke: #A80036; stroke-width: 1.0;"/>
<line style="stroke: #A80036; stroke-width: 1.0;" x1="212.5" x2="506.5" y1="698.9063" y2="698.9063"/>
<text fill="#000000" font-family="sans-serif" font-size="13" lengthAdjust="spacingAndGlyphs" textLength="154" x="219.5" y="693.8403">verify declared evidence</text>
<polygon fill="#A80036" points="61.5,724.0391,51.5,728.0391,61.5,732.0391,57.5,728.0391" style="stroke: #A80036; stroke-width: 1.0;"/>
<line style="stroke: #A80036; stroke-width: 1.0; stroke-dasharray: 2.0,2.0;" x1="55.5" x2="511.5" y1="728.0391" y2="728.0391"/>
<text fill="#000000" font-family="sans-serif" font-size="13" lengthAdjust="spacingAndGlyphs" textLength="231" x="67.5" y="722.9731">proposed verdict and consequences</text>
<polygon fill="#A80036" points="500.5,753.1719,510.5,757.1719,500.5,761.1719,504.5,757.1719" style="stroke: #A80036; stroke-width: 1.0;"/>
<line style="stroke: #A80036; stroke-width: 1.0; stroke-dasharray: 2.0,2.0;" x1="50.5" x2="506.5" y1="757.1719" y2="757.1719"/>
<text fill="#000000" font-family="sans-serif" font-size="13" lengthAdjust="spacingAndGlyphs" textLength="121" x="57.5" y="752.106">confirm / challenge</text>
<polygon fill="#A80036" points="739.5,782.3047,749.5,786.3047,739.5,790.3047,743.5,786.3047" style="stroke: #A80036; stroke-width: 1.0;"/>
<line style="stroke: #A80036; stroke-width: 1.0;" x1="512.5" x2="745.5" y1="786.3047" y2="786.3047"/>
<text fill="#000000" font-family="sans-serif" font-size="13" lengthAdjust="spacingAndGlyphs" textLength="215" x="519.5" y="781.2388">submit gate:&lt;instance&gt;/&lt;node&gt;</text>
<polygon fill="#A80036" points="993.5,811.4375,1003.5,815.4375,993.5,819.4375,997.5,815.4375" style="stroke: #A80036; stroke-width: 1.0;"/>
<line style="stroke: #A80036; stroke-width: 1.0;" x1="751.5" x2="999.5" y1="815.4375" y2="815.4375"/>
<text fill="#000000" font-family="sans-serif" font-size="13" lengthAdjust="spacingAndGlyphs" textLength="195" x="758.5" y="810.3716">Gate receipt, then Gate ledger</text>
<path d="M13,837.4375 L83,837.4375 L83,844.4375 L73,854.4375 L13,854.4375 L13,837.4375 " fill="#EEEEEE" style="stroke: #000000; stroke-width: 1.0;"/>
<rect fill="none" height="162.7969" style="stroke: #000000; stroke-width: 2.0;" width="1059.5" x="13" y="837.4375"/>
<text fill="#000000" font-family="sans-serif" font-size="13" font-weight="bold" lengthAdjust="spacingAndGlyphs" textLength="25" x="28" y="850.5044">opt</text>
<text fill="#000000" font-family="sans-serif" font-size="11" font-weight="bold" lengthAdjust="spacingAndGlyphs" textLength="128" x="98" y="849.6479">[branch or override]</text>
<polygon fill="#A80036" points="500.5,871.7031,510.5,875.7031,500.5,879.7031,504.5,875.7031" style="stroke: #A80036; stroke-width: 1.0;"/>
<line style="stroke: #A80036; stroke-width: 1.0;" x1="212.5" x2="506.5" y1="875.7031" y2="875.7031"/>
<text fill="#000000" font-family="sans-serif" font-size="13" lengthAdjust="spacingAndGlyphs" textLength="214" x="219.5" y="870.6372">present canonical Decision target</text>
<polygon fill="#A80036" points="61.5,900.8359,51.5,904.8359,61.5,908.8359,57.5,904.8359" style="stroke: #A80036; stroke-width: 1.0;"/>
<line style="stroke: #A80036; stroke-width: 1.0; stroke-dasharray: 2.0,2.0;" x1="55.5" x2="511.5" y1="904.8359" y2="904.8359"/>
<text fill="#000000" font-family="sans-serif" font-size="13" lengthAdjust="spacingAndGlyphs" textLength="179" x="67.5" y="899.77">choices and semantic effect</text>
<polygon fill="#A80036" points="500.5,929.9688,510.5,933.9688,500.5,937.9688,504.5,933.9688" style="stroke: #A80036; stroke-width: 1.0;"/>
<line style="stroke: #A80036; stroke-width: 1.0; stroke-dasharray: 2.0,2.0;" x1="50.5" x2="506.5" y1="933.9688" y2="933.9688"/>
<text fill="#000000" font-family="sans-serif" font-size="13" lengthAdjust="spacingAndGlyphs" textLength="177" x="57.5" y="928.9028">explicit choice and rationale</text>
<polygon fill="#A80036" points="739.5,959.1016,749.5,963.1016,739.5,967.1016,743.5,963.1016" style="stroke: #A80036; stroke-width: 1.0;"/>
<line style="stroke: #A80036; stroke-width: 1.0;" x1="512.5" x2="745.5" y1="963.1016" y2="963.1016"/>
<text fill="#000000" font-family="sans-serif" font-size="13" lengthAdjust="spacingAndGlyphs" textLength="191" x="519.5" y="958.0356">decide dry-run then execution</text>
<polygon fill="#A80036" points="993.5,988.2344,1003.5,992.2344,993.5,996.2344,997.5,992.2344" style="stroke: #A80036; stroke-width: 1.0;"/>
<line style="stroke: #A80036; stroke-width: 1.0;" x1="751.5" x2="999.5" y1="992.2344" y2="992.2344"/>
<text fill="#000000" font-family="sans-serif" font-size="13" lengthAdjust="spacingAndGlyphs" textLength="228" x="758.5" y="987.1685">apply evidence, Decision ledger last</text>
<polygon fill="#A80036" points="739.5,1024.3672,749.5,1028.3672,739.5,1032.3672,743.5,1028.3672" style="stroke: #A80036; stroke-width: 1.0;"/>
<line style="stroke: #A80036; stroke-width: 1.0;" x1="212.5" x2="745.5" y1="1028.3672" y2="1028.3672"/>
<text fill="#000000" font-family="sans-serif" font-size="13" lengthAdjust="spacingAndGlyphs" textLength="276" x="219.5" y="1023.3013">instructions transition:&lt;instance&gt;/&lt;node&gt;</text>
<polygon fill="#A80036" points="739.5,1053.5,749.5,1057.5,739.5,1061.5,743.5,1057.5" style="stroke: #A80036; stroke-width: 1.0;"/>
<line style="stroke: #A80036; stroke-width: 1.0;" x1="212.5" x2="745.5" y1="1057.5" y2="1057.5"/>
<text fill="#000000" font-family="sans-serif" font-size="13" lengthAdjust="spacingAndGlyphs" textLength="299" x="219.5" y="1052.4341">Advance dry-run then expected-plan execution</text>
<polygon fill="#A80036" points="993.5,1082.6328,1003.5,1086.6328,993.5,1090.6328,997.5,1086.6328" style="stroke: #A80036; stroke-width: 1.0;"/>
<line style="stroke: #A80036; stroke-width: 1.0;" x1="751.5" x2="999.5" y1="1086.6328" y2="1086.6328"/>
<text fill="#000000" font-family="sans-serif" font-size="13" lengthAdjust="spacingAndGlyphs" textLength="217" x="758.5" y="1081.5669">transition receipt, then state.yaml</text>
<polygon fill="#A80036" points="739.5,1111.7656,749.5,1115.7656,739.5,1119.7656,743.5,1115.7656" style="stroke: #A80036; stroke-width: 1.0;"/>
<line style="stroke: #A80036; stroke-width: 1.0;" x1="212.5" x2="745.5" y1="1115.7656" y2="1115.7656"/>
<text fill="#000000" font-family="sans-serif" font-size="13" lengthAdjust="spacingAndGlyphs" textLength="80" x="219.5" y="1110.6997">status --json</text>
<polygon fill="#A80036" points="223.5,1140.8984,213.5,1144.8984,223.5,1148.8984,219.5,1144.8984" style="stroke: #A80036; stroke-width: 1.0;"/>
<line style="stroke: #A80036; stroke-width: 1.0; stroke-dasharray: 2.0,2.0;" x1="217.5" x2="750.5" y1="1144.8984" y2="1144.8984"/>
<text fill="#000000" font-family="sans-serif" font-size="13" lengthAdjust="spacingAndGlyphs" textLength="163" x="229.5" y="1139.8325">next authoritative frontier</text>
<!--MD5=[7cadb6e5e58460baa3e82c074321bc07]
@startuml
title 统一运行协议：Human / Agent / ARSU / CLI / Workspace
skinparam shadowing false
actor Human
participant "Host Agent / Navigate" as Agent
participant "ARSU producer" as ARSU
participant "Verify / Decide" as Companion
participant "ResearchSpec CLI" as CLI
database "Workspace files" as Files

Agent -> CLI : status - -json
CLI -> Files : load snapshot
Files - -> CLI : profile + state + evidence
CLI - -> Agent : canonical frontier
Agent -> CLI : instructions subflow:<template>
CLI - -> Agent : route, graph, prerequisites, cost, Gates
Agent -> Human : exact route summary
Human - -> Agent : confirm route
Agent -> CLI : Start dry-run then expected-plan execution
CLI -> Files : start receipt, then state.yaml

loop each ready work selector
  Agent -> CLI : instructions work:<instance>/<node>
  CLI - -> Agent : producer, inputs, output path, validation
  Agent -> ARSU : bounded semantic task
  ARSU -> Files : write candidate only
  Agent -> CLI : Submit dry-run then expected-hash execution
  CLI -> Files : submit receipt, then artifact registry
  Agent -> CLI : status - -json
end

opt formal Gate
  Agent -> Companion : verify declared evidence
  Companion - -> Human : proposed verdict and consequences
  Human - -> Companion : confirm / challenge
  Companion -> CLI : submit gate:<instance>/<node>
  CLI -> Files : Gate receipt, then Gate ledger
end

opt branch or override
  Agent -> Companion : present canonical Decision target
  Companion - -> Human : choices and semantic effect
  Human - -> Companion : explicit choice and rationale
  Companion -> CLI : decide dry-run then execution
  CLI -> Files : apply evidence, Decision ledger last
end

Agent -> CLI : instructions transition:<instance>/<node>
Agent -> CLI : Advance dry-run then expected-plan execution
CLI -> Files : transition receipt, then state.yaml
Agent -> CLI : status - -json
CLI - -> Agent : next authoritative frontier
@enduml

PlantUML version 1.2020.02(Sun Mar 01 18:22:07 CST 2020)
(GPL source distribution)
Java Runtime: OpenJDK Runtime Environment
JVM: OpenJDK 64-Bit Server VM
Java Version: 21.0.11+10-1-24.04.2-Ubuntu
Operating System: Linux
Default Encoding: UTF-8
Language: en
Country: null
-->
</g>
</svg>
