<?xml version="1.0" encoding="UTF-8" standalone="no"?>
<svg xmlns="http://www.w3.org/2000/svg" xmlns:xlink="http://www.w3.org/1999/xlink" contentScriptType="application/ecmascript" contentStyleType="text/css" height="818px" preserveAspectRatio="none" style="width:1310px;height:818px;" version="1.1" viewBox="0 0 1310 818" width="1310px" zoomAndPan="magnify">
<defs/>
<g>
<text fill="#000000" font-family="sans-serif" font-size="18" lengthAdjust="spacingAndGlyphs" textLength="383" x="467" y="16.708">ResearchSpec 与 ARSU：系统架构和权威边界</text>
<!--MD5=[ffb0c1cb9f38d3ae161f1b64ebfc9796]
cluster Semantic plane-->
<polygon fill="#FFFFFF" points="22,350.9531,148,350.9531,155,373.25,725,373.25,725,632.9531,22,632.9531,22,350.9531" style="stroke: #000000; stroke-width: 1.5;"/>
<line style="stroke: #000000; stroke-width: 1.5;" x1="22" x2="155" y1="373.25" y2="373.25"/>
<text fill="#000000" font-family="sans-serif" font-size="14" font-weight="bold" lengthAdjust="spacingAndGlyphs" textLength="120" x="26" y="365.9482">Semantic plane</text>
<!--MD5=[f1443a982309511d4975f31b5858e92c]
cluster Deterministic control plane-->
<polygon fill="#FFFFFF" points="960,366.9531,1179,366.9531,1186,389.25,1212,389.25,1212,632.9531,960,632.9531,960,366.9531" style="stroke: #000000; stroke-width: 1.5;"/>
<line style="stroke: #000000; stroke-width: 1.5;" x1="960" x2="1186" y1="389.25" y2="389.25"/>
<text fill="#000000" font-family="sans-serif" font-size="14" font-weight="bold" lengthAdjust="spacingAndGlyphs" textLength="213" x="964" y="381.9482">Deterministic control plane</text>
<!--MD5=[d63799d8921849f8d622093c77b25516]
cluster Build and delivery time-->
<polygon fill="#FFFFFF" points="991,44.9531,1176,44.9531,1183,67.25,1186,67.25,1186,301.9531,991,301.9531,991,44.9531" style="stroke: #000000; stroke-width: 1.5;"/>
<line style="stroke: #000000; stroke-width: 1.5;" x1="991" x2="1183" y1="67.25" y2="67.25"/>
<text fill="#000000" font-family="sans-serif" font-size="14" font-weight="bold" lengthAdjust="spacingAndGlyphs" textLength="179" x="995" y="59.9482">Build and delivery time</text>
<!--MD5=[6619c30145c1a22499de9c3ad5e9641f]
entity ARSU-->
<rect fill="#FEFECE" height="101.4844" style="stroke: #A80036; stroke-width: 1.5;" width="131" x="366.5" y="385.9531"/>
<rect fill="#FEFECE" height="5" style="stroke: #A80036; stroke-width: 1.5;" width="10" x="361.5" y="390.9531"/>
<rect fill="#FEFECE" height="5" style="stroke: #A80036; stroke-width: 1.5;" width="10" x="361.5" y="477.4375"/>
<text fill="#000000" font-family="sans-serif" font-size="14" lengthAdjust="spacingAndGlyphs" textLength="89" x="387.5" y="408.9482">4 ARSU Skills</text>
<text fill="#000000" font-family="sans-serif" font-size="14" lengthAdjust="spacingAndGlyphs" textLength="102" x="381" y="425.2451">deep-research</text>
<text fill="#000000" font-family="sans-serif" font-size="14" lengthAdjust="spacingAndGlyphs" textLength="111" x="376.5" y="441.542">academic-paper</text>
<text fill="#000000" font-family="sans-serif" font-size="14" lengthAdjust="spacingAndGlyphs" textLength="58" x="403" y="457.8389">reviewer</text>
<text fill="#000000" font-family="sans-serif" font-size="14" lengthAdjust="spacingAndGlyphs" textLength="54" x="405" y="474.1357">pipeline</text>
<!--MD5=[77cdce30e60c7b05d39019c0d7813c33]
entity Companion-->
<rect fill="#FEFECE" height="68.8906" style="stroke: #A80036; stroke-width: 1.5;" width="150" x="181" y="401.9531"/>
<rect fill="#FEFECE" height="5" style="stroke: #A80036; stroke-width: 1.5;" width="10" x="176" y="406.9531"/>
<rect fill="#FEFECE" height="5" style="stroke: #A80036; stroke-width: 1.5;" width="10" x="176" y="460.8438"/>
<text fill="#000000" font-family="sans-serif" font-size="14" lengthAdjust="spacingAndGlyphs" textLength="130" x="191" y="424.9482">4 Companion Skills</text>
<text fill="#000000" font-family="sans-serif" font-size="14" lengthAdjust="spacingAndGlyphs" textLength="129" x="191.5" y="441.2451">navigate / propose</text>
<text fill="#000000" font-family="sans-serif" font-size="14" lengthAdjust="spacingAndGlyphs" textLength="95" x="208.5" y="457.542">decide / verify</text>
<!--MD5=[336b9fd48f5e9f3ed29f596a82d3af84]
entity Plugin-->
<rect fill="#FEFECE" height="36.2969" style="stroke: #A80036; stroke-width: 1.5;" width="170" x="130" y="572.4531"/>
<rect fill="#FEFECE" height="5" style="stroke: #A80036; stroke-width: 1.5;" width="10" x="125" y="577.4531"/>
<rect fill="#FEFECE" height="5" style="stroke: #A80036; stroke-width: 1.5;" width="10" x="125" y="598.75"/>
<text fill="#000000" font-family="sans-serif" font-size="14" lengthAdjust="spacingAndGlyphs" textLength="150" x="140" y="595.4482">Optional domain Skills</text>
<!--MD5=[7ccef2e7b7ebcd56969e277d03852c8a]
entity Zotero-->
<rect fill="#FEFECE" height="52.5938" style="stroke: #A80036; stroke-width: 1.5;" width="132" x="383" y="563.9531"/>
<rect fill="#FEFECE" height="5" style="stroke: #A80036; stroke-width: 1.5;" width="10" x="378" y="568.9531"/>
<rect fill="#FEFECE" height="5" style="stroke: #A80036; stroke-width: 1.5;" width="10" x="378" y="606.5469"/>
<text fill="#000000" font-family="sans-serif" font-size="14" lengthAdjust="spacingAndGlyphs" textLength="112" x="393" y="586.9482">Zotero literature</text>
<text fill="#000000" font-family="sans-serif" font-size="14" lengthAdjust="spacingAndGlyphs" textLength="91" x="403.5" y="603.2451">adapter Skills</text>
<!--MD5=[df6a39b053164d23cc3ecae9c3484a54]
entity CLI-->
<rect fill="#FEFECE" height="68.8906" style="stroke: #A80036; stroke-width: 1.5;" width="182" x="976" y="401.9531"/>
<rect fill="#FEFECE" height="5" style="stroke: #A80036; stroke-width: 1.5;" width="10" x="971" y="406.9531"/>
<rect fill="#FEFECE" height="5" style="stroke: #A80036; stroke-width: 1.5;" width="10" x="971" y="460.8438"/>
<text fill="#000000" font-family="sans-serif" font-size="14" lengthAdjust="spacingAndGlyphs" textLength="125" x="1004.5" y="424.9482">ResearchSpec CLI</text>
<text fill="#000000" font-family="sans-serif" font-size="14" lengthAdjust="spacingAndGlyphs" textLength="137" x="998.5" y="441.2451">status / instructions</text>
<text fill="#000000" font-family="sans-serif" font-size="14" lengthAdjust="spacingAndGlyphs" textLength="162" x="986" y="457.542">start / submit / advance</text>
<!--MD5=[5062f9a98e76bdc4187b2b8f5510990d]
entity Eval-->
<rect fill="#FEFECE" height="52.5938" style="stroke: #A80036; stroke-width: 1.5;" width="219" x="976.5" y="563.9531"/>
<rect fill="#FEFECE" height="5" style="stroke: #A80036; stroke-width: 1.5;" width="10" x="971.5" y="568.9531"/>
<rect fill="#FEFECE" height="5" style="stroke: #A80036; stroke-width: 1.5;" width="10" x="971.5" y="606.5469"/>
<text fill="#000000" font-family="sans-serif" font-size="14" lengthAdjust="spacingAndGlyphs" textLength="129" x="1021.5" y="586.9482">Workflow evaluator</text>
<text fill="#000000" font-family="sans-serif" font-size="14" lengthAdjust="spacingAndGlyphs" textLength="199" x="986.5" y="603.2451">profile + evidence -&gt; frontier</text>
<!--MD5=[1cf2f5b3f3259cd69d4fb5d27ad31aef]
entity Converter-->
<rect fill="#FEFECE" height="36.2969" style="stroke: #A80036; stroke-width: 1.5;" width="128" x="1025" y="79.9531"/>
<rect fill="#FEFECE" height="5" style="stroke: #A80036; stroke-width: 1.5;" width="10" x="1020" y="84.9531"/>
<rect fill="#FEFECE" height="5" style="stroke: #A80036; stroke-width: 1.5;" width="10" x="1020" y="106.25"/>
<text fill="#000000" font-family="sans-serif" font-size="14" lengthAdjust="spacingAndGlyphs" textLength="108" x="1035" y="102.9482">ARSU converter</text>
<!--MD5=[215287eedb9f9e2233710674640c5d48]
entity Catalog-->
<rect fill="#FEFECE" height="71.8906" style="stroke: #000000; stroke-width: 1.5;" width="144" x="1017" y="213.9531"/>
<polygon fill="#FEFECE" points="1144,218.9531,1144,232.9531,1156,232.9531,1156,224.9531,1150,218.9531,1144,218.9531" style="stroke: #000000; stroke-width: 1.5;"/>
<line style="stroke: #000000; stroke-width: 1.5;" x1="1150" x2="1150" y1="218.9531" y2="224.9531"/>
<line style="stroke: #000000; stroke-width: 1.5;" x1="1156" x2="1150" y1="224.9531" y2="224.9531"/>
<text fill="#000000" font-family="sans-serif" font-size="14" lengthAdjust="spacingAndGlyphs" textLength="103" x="1032.5" y="239.9482">routing catalog</text>
<text fill="#000000" font-family="sans-serif" font-size="14" lengthAdjust="spacingAndGlyphs" textLength="114" x="1027" y="256.2451">workflow catalog</text>
<text fill="#000000" font-family="sans-serif" font-size="14" lengthAdjust="spacingAndGlyphs" textLength="110" x="1029" y="272.542">generated Skills</text>
<!--MD5=[fee662a292a0353a69bd162820bae93b]
entity User-->
<ellipse cx="432" cy="68.4531" fill="#FEFECE" rx="8" ry="8" style="stroke: #A80036; stroke-width: 1.5;"/>
<path d="M432,76.4531 L432,103.4531 M419,84.4531 L445,84.4531 M432,103.4531 L419,118.4531 M432,103.4531 L445,118.4531 " fill="none" style="stroke: #A80036; stroke-width: 1.5;"/>
<text fill="#000000" font-family="sans-serif" font-size="14" lengthAdjust="spacingAndGlyphs" textLength="80" x="392" y="133.9482">Researcher</text>
<!--MD5=[369697cb8e95e437d349afb476c6440c]
entity Host-->
<rect fill="#FEFECE" height="52.5938" style="stroke: #000000; stroke-width: 1.5;" width="174" x="345" y="223.4531"/>
<text fill="#000000" font-family="sans-serif" font-size="14" lengthAdjust="spacingAndGlyphs" textLength="77" x="393.5" y="246.4482">Host Agent</text>
<text fill="#000000" font-family="sans-serif" font-size="14" lengthAdjust="spacingAndGlyphs" textLength="154" x="355" y="262.7451">(Codex / Claude / etc.)</text>
<!--MD5=[c62652df50fc261bd1a4b70e0d8d2d8a]
entity Files-->
<path d="M696,705.9531 C696,695.9531 805,695.9531 805,695.9531 C805,695.9531 914,695.9531 914,705.9531 L914,796.4375 C914,806.4375 805,806.4375 805,806.4375 C805,806.4375 696,806.4375 696,796.4375 L696,705.9531 " fill="#FEFECE" style="stroke: #000000; stroke-width: 1.5;"/>
<path d="M696,705.9531 C696,715.9531 805,715.9531 805,715.9531 C805,715.9531 914,715.9531 914,705.9531 " fill="none" style="stroke: #000000; stroke-width: 1.5;"/>
<text fill="#000000" font-family="sans-serif" font-size="14" lengthAdjust="spacingAndGlyphs" textLength="153" x="728.5" y="732.9482">Typed workspace files</text>
<text fill="#000000" font-family="sans-serif" font-size="14" lengthAdjust="spacingAndGlyphs" textLength="88" x="761" y="749.2451">stable specs</text>
<text fill="#000000" font-family="sans-serif" font-size="14" lengthAdjust="spacingAndGlyphs" textLength="99" x="755.5" y="765.542">state / registry</text>
<text fill="#000000" font-family="sans-serif" font-size="14" lengthAdjust="spacingAndGlyphs" textLength="169" x="720.5" y="781.8389">Gate + Decision ledgers</text>
<text fill="#000000" font-family="sans-serif" font-size="14" lengthAdjust="spacingAndGlyphs" textLength="198" x="706" y="798.1357">receipts / changes / patches</text>
<path d="M949,730.9531 L949,746.9531 L914.27,750.9531 L949,754.9531 L949,771.2188 A0,0 0 0 0 949,771.2188 L1229,771.2188 A0,0 0 0 0 1229,771.2188 L1229,740.9531 L1219,730.9531 L949,730.9531 A0,0 0 0 0 949,730.9531 " fill="#FBFB77" style="stroke: #A80036; stroke-width: 1.0;"/>
<path d="M1219,730.9531 L1219,740.9531 L1229,740.9531 L1219,730.9531 " fill="#FBFB77" style="stroke: #A80036; stroke-width: 1.0;"/>
<text fill="#000000" font-family="sans-serif" font-size="13" lengthAdjust="spacingAndGlyphs" textLength="259" x="955" y="748.02">ARSU, Companion, plugins and adapters</text>
<text fill="#000000" font-family="sans-serif" font-size="13" lengthAdjust="spacingAndGlyphs" textLength="195" x="955" y="763.1528">never hand-edit authority files.</text>
<!--MD5=[d3158c3d6073fa11f4ae3d9b5b807ce3]
link User to Host-->
<path d="M432,137.1931 C432,162.2131 432,194.4731 432,217.9031 " fill="none" id="User-&gt;Host" style="stroke: #A80036; stroke-width: 1.0;"/>
<polygon fill="#A80036" points="432,223.0531,436,214.0531,432,218.0531,428,214.0531,432,223.0531" style="stroke: #A80036; stroke-width: 1.0;"/>
<text fill="#000000" font-family="sans-serif" font-size="13" lengthAdjust="spacingAndGlyphs" textLength="175" x="433" y="180.02">goal, confirmation, decision</text>
<!--MD5=[ee298d17d16be295bf64aa26577e3ab0]
link Host to Companion-->
<path d="M345.68,276.5431 C324.31,286.4731 303.2,299.9331 288,317.9531 C269.49,339.9031 261.61,371.6431 258.29,396.6031 " fill="none" id="Host-&gt;Companion" style="stroke: #A80036; stroke-width: 1.0;"/>
<polygon fill="#A80036" points="257.65,401.8231,262.7264,393.3834,258.2649,396.8611,254.7872,392.3995,257.65,401.8231" style="stroke: #A80036; stroke-width: 1.0;"/>
<text fill="#000000" font-family="sans-serif" font-size="13" lengthAdjust="spacingAndGlyphs" textLength="134" x="289" y="331.02">route / verify / decide</text>
<!--MD5=[74a54e0f05645400965357c8b0bb8d73]
link Host to ARSU-->
<path d="M432,276.6031 C432,303.4131 432,346.2731 432,380.7231 " fill="none" id="Host-&gt;ARSU" style="stroke: #A80036; stroke-width: 1.0;"/>
<polygon fill="#A80036" points="432,385.7331,436,376.7331,432,380.7331,428,376.7331,432,385.7331" style="stroke: #A80036; stroke-width: 1.0;"/>
<text fill="#000000" font-family="sans-serif" font-size="13" lengthAdjust="spacingAndGlyphs" textLength="131" x="433" y="331.02">semantic production</text>
<!--MD5=[842af2034f250c39df7c320fc62b60f5]
link ARSU to Plugin-->
<path d="M366.15,480.0531 C360.49,482.6831 354.73,485.0431 349,486.9531 C289.86,506.7131 111.67,470.5631 70,516.9531 C45.82,543.8731 82.49,562.0331 124.99,573.4531 " fill="none" id="ARSU-&gt;Plugin" style="stroke: #A80036; stroke-width: 1.0;"/>
<polygon fill="#A80036" points="129.92,574.7431,122.2307,568.5889,125.0839,573.4735,120.1993,576.3266,129.92,574.7431" style="stroke: #A80036; stroke-width: 1.0;"/>
<text fill="#000000" font-family="sans-serif" font-size="13" lengthAdjust="spacingAndGlyphs" textLength="144" x="71" y="530.02">bounded advisory help</text>
<!--MD5=[85035dd5a6063535f5f1ee573ecbdb90]
link Plugin to ARSU-->
<path d="M226.99,572.2831 C238.91,556.2331 258.48,532.4831 280,516.9531 C307.12,497.3831 319.25,502.2131 349,486.9531 C353.17,484.8131 357.41,482.5531 361.67,480.2231 " fill="none" id="Plugin-&gt;ARSU" style="stroke: #A80036; stroke-width: 1.0; stroke-dasharray: 7.0,7.0;"/>
<polygon fill="#A80036" points="366.28,477.6731,356.4679,478.5227,361.9032,480.0904,360.3355,485.5257,366.28,477.6731" style="stroke: #A80036; stroke-width: 1.0;"/>
<text fill="#000000" font-family="sans-serif" font-size="13" lengthAdjust="spacingAndGlyphs" textLength="105" x="281" y="530.02">working material</text>
<!--MD5=[cddf6e7857b551a86b17690f960aac9c]
link ARSU to Zotero-->
<path d="M494.84,487.0931 C502.63,496.1531 509.44,506.1831 514,516.9531 C520.87,533.1731 511.37,548.2031 497.7,560.3231 " fill="none" id="ARSU-&gt;Zotero" style="stroke: #A80036; stroke-width: 1.0;"/>
<polygon fill="#A80036" points="493.75,563.6631,503.2098,560.9223,497.5734,560.4411,498.0546,554.8048,493.75,563.6631" style="stroke: #A80036; stroke-width: 1.0;"/>
<text fill="#000000" font-family="sans-serif" font-size="13" lengthAdjust="spacingAndGlyphs" textLength="154" x="517" y="530.02">bounded literature input</text>
<!--MD5=[650bd7efd8388acca93488941a822724]
link Zotero to ARSU-->
<path d="M418.73,563.7331 C410.77,555.1631 403.23,544.9731 399,533.9531 C393.86,520.5531 395.28,505.9731 399.62,492.2931 " fill="none" id="Zotero-&gt;ARSU" style="stroke: #A80036; stroke-width: 1.0; stroke-dasharray: 7.0,7.0;"/>
<polygon fill="#A80036" points="401.35,487.2931,394.6373,494.5,399.7218,492.0206,402.2012,497.1051,401.35,487.2931" style="stroke: #A80036; stroke-width: 1.0;"/>
<text fill="#000000" font-family="sans-serif" font-size="13" lengthAdjust="spacingAndGlyphs" textLength="105" x="400" y="530.02">working material</text>
<!--MD5=[aa0a8002d2d6bd278286da4e41e56ff5]
link Host to CLI-->
<path d="M519.29,276.3131 C637.57,310.6831 848.02,371.8331 970.75,407.4931 " fill="none" id="Host-&gt;CLI" style="stroke: #A80036; stroke-width: 1.0;"/>
<polygon fill="#A80036" points="975.81,408.9531,968.2726,402.6138,971.0062,407.5663,966.0537,410.2999,975.81,408.9531" style="stroke: #A80036; stroke-width: 1.0;"/>
<text fill="#000000" font-family="sans-serif" font-size="13" lengthAdjust="spacingAndGlyphs" textLength="234" x="712" y="331.02">canonical selectors + strict payloads</text>
<!--MD5=[5d457924e2cccd99598dba704d331a1e]
link CLI to Eval-->
<path d="M1071.22,471.1831 C1074.48,497.3131 1078.97,533.2231 1082.14,558.5931 " fill="none" id="CLI-&gt;Eval" style="stroke: #A80036; stroke-width: 1.0;"/>
<polygon fill="#A80036" points="1082.8,563.8431,1085.6628,554.4195,1082.1851,558.8811,1077.7236,555.4034,1082.8,563.8431" style="stroke: #A80036; stroke-width: 1.0;"/>
<!--MD5=[bdb47de05d71cca8f6dc87d66c6e8582]
link Eval to Files-->
<path d="M1040.54,617.0931 C1004.05,637.6731 951.46,667.3431 905.22,693.4231 " fill="none" id="Eval-&gt;Files" style="stroke: #A80036; stroke-width: 1.0;"/>
<polygon fill="#A80036" points="900.77,695.9331,910.5742,694.9964,905.1252,693.4771,906.6445,688.0281,900.77,695.9331" style="stroke: #A80036; stroke-width: 1.0;"/>
<text fill="#000000" font-family="sans-serif" font-size="13" lengthAdjust="spacingAndGlyphs" textLength="161" x="979" y="662.02">read profile and evidence</text>
<!--MD5=[ba0fd13fa11307b8e95c539cbe2f2cf3]
link CLI to Files-->
<path d="M975.89,453.3531 C913,469.5831 833.79,501.6631 794,563.9531 C770.25,601.1331 774.93,651.4831 784.48,690.4231 " fill="none" id="CLI-&gt;Files" style="stroke: #A80036; stroke-width: 1.0;"/>
<polygon fill="#A80036" points="785.8,695.5931,787.4641,685.8859,784.5705,690.7466,779.7097,687.8531,785.8,695.5931" style="stroke: #A80036; stroke-width: 1.0;"/>
<text fill="#000000" font-family="sans-serif" font-size="13" lengthAdjust="spacingAndGlyphs" textLength="98" x="827.5" y="587.52">authority writes</text>
<text fill="#000000" font-family="sans-serif" font-size="13" lengthAdjust="spacingAndGlyphs" textLength="163" x="795" y="602.6528">through transactions only</text>
<!--MD5=[2135912d7ff234546433fb6c510f8d38]
link Converter to Catalog-->
<path d="M1089,116.1631 C1089,138.5631 1089,178.4331 1089,208.6531 " fill="none" id="Converter-&gt;Catalog" style="stroke: #A80036; stroke-width: 1.0;"/>
<polygon fill="#A80036" points="1089,213.7931,1093,204.7931,1089,208.7931,1085,204.7931,1089,213.7931" style="stroke: #A80036; stroke-width: 1.0;"/>
<!--MD5=[8a6caa99bf07ca68e1fe296caa5ad89c]
link Catalog to ARSU-->
<path d="M1042.61,286.0331 C1017.8,303.1931 986.04,322.7331 955,334.9531 C800.59,395.7131 605.63,420.6731 502.87,430.1731 " fill="none" id="Catalog-&gt;ARSU" style="stroke: #A80036; stroke-width: 1.0; stroke-dasharray: 7.0,7.0;"/>
<polygon fill="#A80036" points="497.75,430.6331,507.0785,433.7922,502.729,430.1753,506.3459,425.8258,497.75,430.6331" style="stroke: #A80036; stroke-width: 1.0;"/>
<text fill="#000000" font-family="sans-serif" font-size="13" lengthAdjust="spacingAndGlyphs" textLength="138" x="991" y="331.02">projected instructions</text>
<!--MD5=[8c836004bba97bd4a5e03aab755b04b2]
link Catalog to Eval-->
<path d="M1134.27,285.9631 C1150.68,301.4431 1167.3,321.1031 1176,342.9531 C1199.66,402.4131 1198.56,427.0631 1176,486.9531 C1165.2,515.6231 1142.33,541.4931 1122.35,560.0731 " fill="none" id="Catalog-&gt;Eval" style="stroke: #A80036; stroke-width: 1.0; stroke-dasharray: 7.0,7.0;"/>
<polygon fill="#A80036" points="1118.39,563.6931,1127.7306,560.5701,1122.0793,560.3184,1122.331,554.6671,1118.39,563.6931" style="stroke: #A80036; stroke-width: 1.0;"/>
<text fill="#000000" font-family="sans-serif" font-size="13" lengthAdjust="spacingAndGlyphs" textLength="104" x="1194" y="441.02">arsu-v0-1 profile</text>
<!--MD5=[d0ee20738fc43dd1fa17bb676dad2380]
@startuml
title ResearchSpec 与 ARSU：系统架构和权威边界
skinparam componentStyle rectangle
skinparam shadowing false
skinparam defaultTextAlignment center

actor "Researcher" as User
rectangle "Host Agent\n(Codex / Claude / etc.)" as Host

package "Semantic plane" {
  component "4 ARSU Skills\ndeep-research\nacademic-paper\nreviewer\npipeline" as ARSU
  component "4 Companion Skills\nnavigate / propose\ndecide / verify" as Companion
  component "Optional domain Skills" as Plugin
  component "Zotero literature\nadapter Skills" as Zotero
}

package "Deterministic control plane" {
  component "ResearchSpec CLI\nstatus / instructions\nstart / submit / advance" as CLI
  component "Workflow evaluator\nprofile + evidence -> frontier" as Eval
}

database "Typed workspace files\nstable specs\nstate / registry\nGate + Decision ledgers\nreceipts / changes / patches" as Files

package "Build and delivery time" {
  component "ARSU converter" as Converter
  artifact "routing catalog\nworkflow catalog\ngenerated Skills" as Catalog
}

User - -> Host : goal, confirmation, decision
Host - -> Companion : route / verify / decide
Host - -> ARSU : semantic production
ARSU - -> Plugin : bounded advisory help
ARSU - -> Zotero : bounded literature input
Host - -> CLI : canonical selectors + strict payloads
CLI - -> Eval
Eval - -> Files : read profile and evidence
CLI - -> Files : authority writes\nthrough transactions only
Plugin ..> ARSU : working material
Zotero ..> ARSU : working material
Converter - -> Catalog
Catalog ..> ARSU : projected instructions
Catalog ..> Eval : arsu-v0-1 profile

note right of Files
  ARSU, Companion, plugins and adapters
  never hand-edit authority files.
end note
@enduml

PlantUML version 1.2020.02(Sun Mar 01 18:22:07 CST 2020)
(GPL source distribution)
Java Runtime: OpenJDK Runtime Environment
JVM: OpenJDK 64-Bit Server VM
Java Version: 21.0.11+10-1-24.04.2-Ubuntu
Operating System: Linux
Default Encoding: UTF-8
Language: en
Country: null
-->
</g>
</svg>
